<svg width="198" height="24" viewBox="0 0 198 24" fill="none" xmlns="http://www.w3.org/2000/svg">
<path d="M29.0968 12.632C29.4648 12.632 29.7288 12.712 29.8888 12.872C30.0648 13.032 30.1528 13.24 30.1528 13.496C30.1528 13.912 30.0248 14.28 29.7688 14.6C29.5288 14.92 29.1448 15.088 28.6168 15.104C27.3528 15.12 26.2168 15.024 25.2088 14.816C24.0888 17.2 22.7368 19.184 21.1528 20.768C19.5848 22.336 18.0328 23.12 16.4968 23.12C15.0888 23.12 14.0328 22.376 13.3288 20.888C12.6248 19.384 12.2248 17.376 12.1288 14.864C11.1688 17.648 10.0808 19.72 8.86484 21.08C7.66484 22.44 6.38484 23.12 5.02484 23.12C3.48884 23.12 2.32884 22.168 1.54484 20.264C0.760844 18.344 0.368844 15.768 0.368844 12.536C0.368844 10.184 0.576844 7.6 0.992844 4.784C1.10484 3.984 1.30484 3.432 1.59284 3.128C1.89684 2.808 2.36884 2.648 3.00884 2.648C3.48884 2.648 3.85684 2.752 4.11284 2.96C4.38484 3.168 4.52084 3.552 4.52084 4.112C4.52084 4.224 4.50484 4.44 4.47284 4.76C3.99284 8.04 3.75284 10.832 3.75284 13.136C3.75284 15.28 3.93684 16.936 4.30484 18.104C4.67284 19.272 5.16884 19.856 5.79284 19.856C6.35284 19.856 7.02484 19.272 7.80884 18.104C8.60884 16.92 9.40084 15.176 10.1848 12.872C10.9688 10.552 11.6328 7.792 12.1768 4.592C12.3048 3.856 12.5368 3.352 12.8728 3.08C13.2248 2.792 13.6968 2.648 14.2888 2.648C14.7848 2.648 15.1448 2.76 15.3688 2.984C15.6088 3.192 15.7288 3.512 15.7288 3.944C15.7288 4.2 15.7128 4.4 15.6808 4.544C15.2328 7.152 15.0088 9.76 15.0088 12.368C15.0088 14.144 15.0648 15.56 15.1768 16.616C15.3048 17.672 15.5368 18.48 15.8728 19.04C16.2248 19.584 16.7288 19.856 17.3848 19.856C18.1528 19.856 19.0088 19.28 19.9528 18.128C20.8968 16.96 21.7608 15.512 22.5448 13.784C21.5688 13.176 20.8328 12.392 20.3368 11.432C19.8408 10.456 19.5928 9.336 19.5928 8.072C19.5928 6.808 19.7848 5.744 20.1688 4.88C20.5688 4 21.1048 3.344 21.7768 2.912C22.4648 2.48 23.2248 2.264 24.0568 2.264C25.0808 2.264 25.8888 2.632 26.4808 3.368C27.0888 4.104 27.3928 5.112 27.3928 6.392C27.3928 8.2 27.0008 10.208 26.2168 12.416C27.0328 12.56 27.9928 12.632 29.0968 12.632ZM22.0168 7.904C22.0168 9.472 22.5208 10.632 23.5288 11.384C24.1528 9.592 24.4648 8.112 24.4648 6.944C24.4648 6.272 24.3768 5.784 24.2008 5.48C24.0248 5.16 23.7848 5 23.4808 5C23.0488 5 22.6968 5.256 22.4248 5.768C22.1528 6.264 22.0168 6.976 22.0168 7.904ZM40.06 15.632C40.268 15.632 40.428 15.736 40.54 15.944C40.652 16.152 40.708 16.416 40.708 16.736C40.708 17.504 40.476 17.96 40.012 18.104C39.052 18.44 37.996 18.632 36.844 18.68C36.54 20.024 35.94 21.104 35.044 21.92C34.148 22.72 33.132 23.12 31.996 23.12C31.036 23.12 30.212 22.888 29.524 22.424C28.852 21.96 28.34 21.344 27.988 20.576C27.636 19.808 27.46 18.976 27.46 18.08C27.46 16.864 27.692 15.784 28.156 14.84C28.62 13.88 29.26 13.136 30.076 12.608C30.892 12.064 31.796 11.792 32.788 11.792C34.004 11.792 34.98 12.216 35.716 13.064C36.468 13.896 36.908 14.928 37.036 16.16C37.788 16.112 38.684 15.952 39.724 15.68C39.852 15.648 39.964 15.632 40.06 15.632ZM32.188 20.576C32.7 20.576 33.14 20.368 33.508 19.952C33.892 19.536 34.148 18.936 34.276 18.152C33.78 17.816 33.396 17.376 33.124 16.832C32.868 16.288 32.74 15.712 32.74 15.104C32.74 14.848 32.764 14.592 32.812 14.336H32.692C32.052 14.336 31.516 14.648 31.084 15.272C30.668 15.88 30.46 16.744 30.46 17.864C30.46 18.744 30.628 19.416 30.964 19.88C31.316 20.344 31.724 20.576 32.188 20.576ZM40.3521 23.12C39.7441 23.12 39.3121 22.8 39.0561 22.16C38.8161 21.52 38.6961 20.496 38.6961 19.088C38.6961 17.008 38.9921 15.032 39.5841 13.16C39.7281 12.696 39.9601 12.36 40.2801 12.152C40.6161 11.928 41.0801 11.816 41.6721 11.816C41.9921 11.816 42.2161 11.856 42.3441 11.936C42.4721 12.016 42.5361 12.168 42.5361 12.392C42.5361 12.648 42.4161 13.224 42.1761 14.12C42.0161 14.76 41.8881 15.32 41.7921 15.8C41.6961 16.264 41.6161 16.848 41.5521 17.552C41.9841 16.304 42.4961 15.248 43.0881 14.384C43.6961 13.52 44.3121 12.88 44.9361 12.464C45.5761 12.032 46.1761 11.816 46.7361 11.816C47.2961 11.816 47.6881 11.944 47.9121 12.2C48.1521 12.456 48.2721 12.848 48.2721 13.376C48.2721 13.888 48.1201 14.816 47.8161 16.16C47.6881 16.736 47.6001 17.168 47.5521 17.456C48.3521 15.488 49.2401 14.056 50.2161 13.16C51.1921 12.264 52.1041 11.816 52.9521 11.816C53.9921 11.816 54.5121 12.336 54.5121 13.376C54.5121 14 54.3361 15.128 53.9841 16.76C53.6801 18.152 53.5281 19.072 53.5281 19.52C53.5281 20.16 53.7601 20.48 54.2241 20.48C54.5441 20.48 54.9201 20.288 55.3521 19.904C55.8001 19.504 56.3921 18.864 57.1281 17.984C57.3201 17.76 57.5361 17.648 57.7761 17.648C57.9841 17.648 58.1441 17.744 58.2561 17.936C58.3841 18.128 58.4481 18.392 58.4481 18.728C58.4481 19.368 58.2961 19.864 57.9921 20.216C57.3041 21.064 56.5601 21.76 55.7601 22.304C54.9761 22.848 54.0801 23.12 53.0721 23.12C52.2561 23.12 51.6401 22.888 51.2241 22.424C50.8081 21.944 50.6001 21.256 50.6001 20.36C50.6001 19.912 50.7121 19.112 50.9361 17.96C51.1441 16.952 51.2481 16.256 51.2481 15.872C51.2481 15.616 51.1601 15.488 50.9841 15.488C50.7761 15.488 50.4801 15.76 50.0961 16.304C49.7121 16.832 49.3281 17.536 48.9441 18.416C48.5601 19.296 48.2481 20.224 48.0081 21.2C47.8321 21.968 47.6241 22.48 47.3841 22.736C47.1601 22.992 46.7921 23.12 46.2801 23.12C45.7521 23.12 45.3521 22.872 45.0801 22.376C44.8241 21.864 44.6961 21.248 44.6961 20.528C44.6961 19.92 44.7761 19.04 44.9361 17.888C45.0641 16.864 45.1281 16.192 45.1281 15.872C45.1281 15.616 45.0401 15.488 44.8641 15.488C44.6241 15.488 44.3201 15.776 43.9521 16.352C43.5841 16.928 43.2241 17.664 42.8721 18.56C42.5361 19.456 42.2641 20.336 42.0561 21.2C41.8801 21.952 41.6721 22.464 41.4321 22.736C41.2081 22.992 40.8481 23.12 40.3521 23.12ZM67.2115 17.648C67.4195 17.648 67.5795 17.744 67.6915 17.936C67.8195 18.128 67.8835 18.392 67.8835 18.728C67.8835 19.368 67.7315 19.864 67.4275 20.216C66.8355 20.936 65.9955 21.6 64.9075 22.208C63.8355 22.816 62.6835 23.12 61.4515 23.12C59.7715 23.12 58.4675 22.664 57.5395 21.752C56.6115 20.84 56.1475 19.592 56.1475 18.008C56.1475 16.904 56.3795 15.88 56.8435 14.936C57.3075 13.976 57.9475 13.216 58.7635 12.656C59.5955 12.096 60.5315 11.816 61.5715 11.816C62.4995 11.816 63.2435 12.096 63.8035 12.656C64.3635 13.2 64.6435 13.944 64.6435 14.888C64.6435 15.992 64.2435 16.944 63.4435 17.744C62.6595 18.528 61.3235 19.152 59.4355 19.616C59.8355 20.352 60.5955 20.72 61.7155 20.72C62.4355 20.72 63.2515 20.472 64.1635 19.976C65.0915 19.464 65.8915 18.8 66.5635 17.984C66.7555 17.76 66.9715 17.648 67.2115 17.648ZM61.1635 14.168C60.5715 14.168 60.0675 14.512 59.6515 15.2C59.2515 15.888 59.0515 16.72 59.0515 17.696V17.744C59.9955 17.52 60.7395 17.184 61.2835 16.736C61.8275 16.288 62.0995 15.768 62.0995 15.176C62.0995 14.872 62.0115 14.632 61.8355 14.456C61.6755 14.264 61.4515 14.168 61.1635 14.168ZM67.6333 23.12C67.0253 23.12 66.5933 22.8 66.3373 22.16C66.0973 21.52 65.9773 20.496 65.9773 19.088C65.9773 17.008 66.2733 15.032 66.8653 13.16C67.0093 12.696 67.2413 12.36 67.5613 12.152C67.8973 11.928 68.3613 11.816 68.9533 11.816C69.2733 11.816 69.4973 11.856 69.6253 11.936C69.7533 12.016 69.8173 12.168 69.8173 12.392C69.8173 12.648 69.6973 13.224 69.4573 14.12C69.2973 14.76 69.1693 15.32 69.0733 15.8C68.9773 16.28 68.8973 16.872 68.8333 17.576C69.3613 16.2 69.9533 15.08 70.6093 14.216C71.2653 13.352 71.9053 12.736 72.5293 12.368C73.1693 12 73.7533 11.816 74.2813 11.816C74.7933 11.816 75.1773 11.952 75.4333 12.224C75.7053 12.48 75.8413 12.864 75.8413 13.376C75.8413 13.792 75.7533 14.576 75.5773 15.728C75.4173 16.704 75.2893 17.632 75.1933 18.512C75.0973 19.376 75.0493 20.344 75.0493 21.416C75.0493 22.024 74.9213 22.464 74.6653 22.736C74.4253 22.992 74.0253 23.12 73.4653 23.12C72.9373 23.12 72.5533 22.984 72.3133 22.712C72.0733 22.44 71.9533 22.032 71.9533 21.488C71.9533 20.848 72.0653 19.792 72.2893 18.32C72.4813 17.04 72.5773 16.224 72.5773 15.872C72.5773 15.616 72.4893 15.488 72.3133 15.488C72.1053 15.488 71.8093 15.76 71.4253 16.304C71.0573 16.832 70.6733 17.536 70.2733 18.416C69.8893 19.296 69.5773 20.224 69.3373 21.2C69.1613 21.952 68.9533 22.464 68.7133 22.736C68.4893 22.992 68.1293 23.12 67.6333 23.12ZM114.386 12.632C114.754 12.632 115.018 12.712 115.178 12.872C115.354 13.032 115.442 13.24 115.442 13.496C115.442 13.912 115.314 14.28 115.058 14.6C114.818 14.92 114.434 15.088 113.906 15.104C112.642 15.12 111.506 15.024 110.498 14.816C109.378 17.2 108.026 19.184 106.442 20.768C104.874 22.336 103.322 23.12 101.786 23.12C100.378 23.12 99.3219 22.376 98.6179 20.888C97.9139 19.384 97.5139 17.376 97.4179 14.864C96.4579 17.648 95.3699 19.72 94.1539 21.08C92.9539 22.44 91.6739 23.12 90.3139 23.12C88.7779 23.12 87.6179 22.168 86.8339 20.264C86.0499 18.344 85.6579 15.768 85.6579 12.536C85.6579 10.184 85.8659 7.6 86.2819 4.784C86.3939 3.984 86.5939 3.432 86.8819 3.128C87.1859 2.808 87.6579 2.648 88.2979 2.648C88.7779 2.648 89.1459 2.752 89.4019 2.96C89.6739 3.168 89.8099 3.552 89.8099 4.112C89.8099 4.224 89.7939 4.44 89.7619 4.76C89.2819 8.04 89.0419 10.832 89.0419 13.136C89.0419 15.28 89.2259 16.936 89.5939 18.104C89.9619 19.272 90.4579 19.856 91.0819 19.856C91.6419 19.856 92.3139 19.272 93.0979 18.104C93.8979 16.92 94.6899 15.176 95.4739 12.872C96.2579 10.552 96.9219 7.792 97.4659 4.592C97.5939 3.856 97.8259 3.352 98.1619 3.08C98.5139 2.792 98.9859 2.648 99.5779 2.648C100.074 2.648 100.434 2.76 100.658 2.984C100.898 3.192 101.018 3.512 101.018 3.944C101.018 4.2 101.002 4.4 100.97 4.544C100.522 7.152 100.298 9.76 100.298 12.368C100.298 14.144 100.354 15.56 100.466 16.616C100.594 17.672 100.826 18.48 101.162 19.04C101.514 19.584 102.018 19.856 102.674 19.856C103.442 19.856 104.298 19.28 105.242 18.128C106.186 16.96 107.05 15.512 107.834 13.784C106.858 13.176 106.122 12.392 105.626 11.432C105.13 10.456 104.882 9.336 104.882 8.072C104.882 6.808 105.074 5.744 105.458 4.88C105.858 4 106.394 3.344 107.066 2.912C107.754 2.48 108.514 2.264 109.346 2.264C110.37 2.264 111.178 2.632 111.77 3.368C112.378 4.104 112.682 5.112 112.682 6.392C112.682 8.2 112.29 10.208 111.506 12.416C112.322 12.56 113.282 12.632 114.386 12.632ZM107.306 7.904C107.306 9.472 107.81 10.632 108.818 11.384C109.442 9.592 109.754 8.112 109.754 6.944C109.754 6.272 109.666 5.784 109.49 5.48C109.314 5.16 109.074 5 108.77 5C108.338 5 107.986 5.256 107.714 5.768C107.442 6.264 107.306 6.976 107.306 7.904ZM126.429 17.648C126.637 17.648 126.797 17.744 126.909 17.936C127.037 18.128 127.101 18.392 127.101 18.728C127.101 19.368 126.949 19.864 126.645 20.216C125.909 21.064 125.149 21.76 124.365 22.304C123.597 22.848 122.717 23.12 121.725 23.12C120.909 23.12 120.293 22.888 119.877 22.424C119.461 21.944 119.253 21.256 119.253 20.36C119.253 19.912 119.365 19.112 119.589 17.96C119.797 16.952 119.901 16.256 119.901 15.872C119.901 15.616 119.813 15.488 119.637 15.488C119.429 15.488 119.133 15.76 118.749 16.304C118.365 16.832 117.981 17.536 117.597 18.416C117.213 19.296 116.901 20.224 116.661 21.2C116.357 22.48 115.605 23.12 114.405 23.12C113.925 23.12 113.605 22.952 113.445 22.616C113.301 22.264 113.229 21.64 113.229 20.744C113.229 20.232 113.237 19.824 113.253 19.52L113.277 17.6C113.277 15.136 113.525 12.568 114.021 9.896C114.533 7.224 115.277 4.984 116.253 3.176C117.245 1.352 118.429 0.439999 119.805 0.439999C120.541 0.439999 121.133 0.759999 121.581 1.4C122.045 2.024 122.277 2.84 122.277 3.848C122.277 5.464 121.805 7.144 120.861 8.888C119.917 10.616 118.381 12.64 116.253 14.96C116.205 15.792 116.181 16.648 116.181 17.528C116.709 16.168 117.293 15.064 117.933 14.216C118.589 13.352 119.229 12.736 119.853 12.368C120.493 12 121.077 11.816 121.605 11.816C122.645 11.816 123.165 12.336 123.165 13.376C123.165 14 122.989 15.128 122.637 16.76C122.333 18.152 122.181 19.072 122.181 19.52C122.181 20.16 122.413 20.48 122.877 20.48C123.197 20.48 123.573 20.288 124.005 19.904C124.453 19.504 125.045 18.864 125.781 17.984C125.973 17.76 126.189 17.648 126.429 17.648ZM119.301 2.816C119.013 2.816 118.693 3.232 118.341 4.064C117.989 4.88 117.645 5.992 117.309 7.4C116.989 8.792 116.725 10.312 116.517 11.96C117.509 10.792 118.325 9.52 118.965 8.144C119.621 6.768 119.949 5.52 119.949 4.4C119.949 3.888 119.893 3.496 119.781 3.224C119.669 2.952 119.509 2.816 119.301 2.816ZM129.212 23.12C128.268 23.12 127.46 22.888 126.788 22.424C126.132 21.944 125.636 21.32 125.3 20.552C124.964 19.784 124.796 18.96 124.796 18.08C124.796 16.864 125.02 15.784 125.468 14.84C125.932 13.88 126.556 13.136 127.34 12.608C128.124 12.064 129.004 11.792 129.98 11.792C130.924 11.792 131.732 12.032 132.404 12.512C133.076 12.976 133.58 13.592 133.916 14.36C134.252 15.128 134.42 15.952 134.42 16.832C134.42 18.048 134.188 19.136 133.724 20.096C133.26 21.04 132.628 21.784 131.828 22.328C131.044 22.856 130.172 23.12 129.212 23.12ZM129.476 20.528C130.02 20.528 130.476 20.232 130.844 19.64C131.228 19.048 131.42 18.184 131.42 17.048C131.42 16.168 131.26 15.504 130.94 15.056C130.62 14.608 130.236 14.384 129.788 14.384C129.212 14.384 128.732 14.68 128.348 15.272C127.98 15.848 127.796 16.712 127.796 17.864C127.796 18.776 127.956 19.448 128.276 19.88C128.596 20.312 128.996 20.528 129.476 20.528ZM152.102 23.12C150.198 23.12 148.542 22.776 147.134 22.088C145.726 21.384 144.646 20.392 143.894 19.112C143.142 17.832 142.766 16.344 142.766 14.648C142.766 12.296 143.206 10.208 144.086 8.384C144.982 6.56 146.19 5.152 147.71 4.16C149.23 3.152 150.918 2.648 152.774 2.648C154.502 2.648 155.814 3.096 156.71 3.992C157.606 4.872 158.054 6.04 158.054 7.496C158.054 8.472 157.878 9.256 157.526 9.848C157.19 10.44 156.702 10.736 156.062 10.736C155.614 10.736 155.262 10.632 155.006 10.424C154.75 10.216 154.622 9.912 154.622 9.512C154.622 9.368 154.654 9.104 154.718 8.72C154.814 8.24 154.862 7.856 154.862 7.568C154.862 6.112 154.086 5.384 152.534 5.384C151.478 5.384 150.47 5.728 149.51 6.416C148.55 7.104 147.774 8.12 147.182 9.464C146.59 10.792 146.294 12.376 146.294 14.216C146.294 16.136 146.83 17.624 147.902 18.68C148.974 19.72 150.558 20.24 152.654 20.24C153.694 20.24 154.742 20.112 155.798 19.856C156.87 19.584 158.054 19.176 159.35 18.632C159.59 18.536 159.79 18.488 159.95 18.488C160.206 18.488 160.398 18.584 160.526 18.776C160.654 18.968 160.718 19.216 160.718 19.52C160.718 20.496 160.19 21.216 159.134 21.68C157.998 22.176 156.814 22.544 155.582 22.784C154.366 23.008 153.206 23.12 152.102 23.12ZM172.156 17.648C172.364 17.648 172.524 17.744 172.636 17.936C172.764 18.128 172.828 18.392 172.828 18.728C172.828 19.368 172.676 19.864 172.372 20.216C171.636 21.064 170.876 21.76 170.092 22.304C169.324 22.848 168.444 23.12 167.452 23.12C166.636 23.12 166.02 22.888 165.604 22.424C165.188 21.944 164.98 21.256 164.98 20.36C164.98 19.912 165.092 19.112 165.316 17.96C165.524 16.952 165.628 16.256 165.628 15.872C165.628 15.616 165.54 15.488 165.364 15.488C165.156 15.488 164.86 15.76 164.476 16.304C164.092 16.832 163.708 17.536 163.324 18.416C162.94 19.296 162.628 20.224 162.388 21.2C162.084 22.48 161.332 23.12 160.132 23.12C159.652 23.12 159.332 22.952 159.172 22.616C159.028 22.264 158.956 21.64 158.956 20.744C158.956 20.232 158.964 19.824 158.98 19.52L159.004 17.6C159.004 15.136 159.252 12.568 159.748 9.896C160.26 7.224 161.004 4.984 161.98 3.176C162.972 1.352 164.156 0.439999 165.532 0.439999C166.268 0.439999 166.86 0.759999 167.308 1.4C167.772 2.024 168.004 2.84 168.004 3.848C168.004 5.464 167.532 7.144 166.588 8.888C165.644 10.616 164.108 12.64 161.98 14.96C161.932 15.792 161.908 16.648 161.908 17.528C162.436 16.168 163.02 15.064 163.66 14.216C164.316 13.352 164.956 12.736 165.58 12.368C166.22 12 166.804 11.816 167.332 11.816C168.372 11.816 168.892 12.336 168.892 13.376C168.892 14 168.716 15.128 168.364 16.76C168.06 18.152 167.908 19.072 167.908 19.52C167.908 20.16 168.14 20.48 168.604 20.48C168.924 20.48 169.3 20.288 169.732 19.904C170.18 19.504 170.772 18.864 171.508 17.984C171.7 17.76 171.916 17.648 172.156 17.648ZM165.028 2.816C164.74 2.816 164.42 3.232 164.068 4.064C163.716 4.88 163.372 5.992 163.036 7.4C162.716 8.792 162.452 10.312 162.244 11.96C163.236 10.792 164.052 9.52 164.692 8.144C165.348 6.768 165.676 5.52 165.676 4.4C165.676 3.888 165.62 3.496 165.508 3.224C165.396 2.952 165.236 2.816 165.028 2.816ZM174.026 10.232C173.354 10.232 172.85 10.08 172.514 9.776C172.178 9.456 172.01 9.016 172.01 8.456C172.01 7.896 172.226 7.432 172.658 7.064C173.106 6.68 173.658 6.488 174.314 6.488C174.906 6.488 175.386 6.632 175.754 6.92C176.122 7.208 176.306 7.616 176.306 8.144C176.306 8.784 176.098 9.296 175.682 9.68C175.266 10.048 174.714 10.232 174.026 10.232ZM173.834 23.12C172.794 23.12 172.034 22.752 171.554 22.016C171.09 21.28 170.858 20.304 170.858 19.088C170.858 18.368 170.946 17.448 171.122 16.328C171.314 15.192 171.554 14.136 171.842 13.16C171.986 12.648 172.178 12.296 172.418 12.104C172.658 11.912 173.042 11.816 173.57 11.816C174.386 11.816 174.794 12.088 174.794 12.632C174.794 13.032 174.642 13.96 174.338 15.416C173.954 17.176 173.762 18.368 173.762 18.992C173.762 19.472 173.826 19.84 173.954 20.096C174.082 20.352 174.298 20.48 174.602 20.48C174.89 20.48 175.25 20.28 175.682 19.88C176.114 19.48 176.69 18.848 177.41 17.984C177.602 17.76 177.818 17.648 178.058 17.648C178.266 17.648 178.426 17.744 178.538 17.936C178.666 18.128 178.73 18.392 178.73 18.728C178.73 19.368 178.578 19.864 178.274 20.216C176.69 22.152 175.21 23.12 173.834 23.12ZM178.493 23.12C177.885 23.12 177.453 22.8 177.197 22.16C176.957 21.52 176.837 20.496 176.837 19.088C176.837 17.008 177.133 15.032 177.725 13.16C177.869 12.696 178.101 12.36 178.421 12.152C178.757 11.928 179.221 11.816 179.813 11.816C180.133 11.816 180.357 11.856 180.485 11.936C180.613 12.016 180.677 12.168 180.677 12.392C180.677 12.648 180.557 13.224 180.317 14.12C180.157 14.76 180.029 15.32 179.933 15.8C179.837 16.28 179.757 16.872 179.693 17.576C180.221 16.2 180.813 15.08 181.469 14.216C182.125 13.352 182.765 12.736 183.389 12.368C184.029 12 184.613 11.816 185.141 11.816C186.181 11.816 186.701 12.336 186.701 13.376C186.701 14 186.525 15.128 186.173 16.76C185.869 18.152 185.717 19.072 185.717 19.52C185.717 20.16 185.949 20.48 186.413 20.48C186.733 20.48 187.109 20.288 187.541 19.904C187.989 19.504 188.581 18.864 189.317 17.984C189.509 17.76 189.725 17.648 189.965 17.648C190.173 17.648 190.333 17.744 190.445 17.936C190.573 18.128 190.637 18.392 190.637 18.728C190.637 19.368 190.485 19.864 190.181 20.216C189.493 21.064 188.749 21.76 187.949 22.304C187.165 22.848 186.269 23.12 185.261 23.12C184.445 23.12 183.829 22.888 183.413 22.424C182.997 21.944 182.789 21.256 182.789 20.36C182.789 19.912 182.901 19.112 183.125 17.96C183.333 16.952 183.437 16.256 183.437 15.872C183.437 15.616 183.349 15.488 183.173 15.488C182.965 15.488 182.669 15.76 182.285 16.304C181.917 16.832 181.533 17.536 181.133 18.416C180.749 19.296 180.437 20.224 180.197 21.2C180.021 21.952 179.813 22.464 179.573 22.736C179.349 22.992 178.989 23.12 178.493 23.12ZM191.455 23.12C190.543 23.12 189.799 22.76 189.223 22.04C188.663 21.32 188.383 20.376 188.383 19.208C188.383 17.928 188.679 16.72 189.271 15.584C189.863 14.432 190.647 13.512 191.623 12.824C192.615 12.12 193.663 11.768 194.767 11.768C195.119 11.768 195.351 11.84 195.463 11.984C195.591 12.112 195.695 12.352 195.775 12.704C196.079 12.64 196.415 12.608 196.783 12.608C197.167 12.608 197.463 12.704 197.671 12.896C197.879 13.088 197.983 13.36 197.983 13.712C197.983 14.08 197.903 14.72 197.743 15.632C197.567 16.608 197.431 17.544 197.335 18.44C197.239 19.32 197.191 20.312 197.191 21.416C197.191 22.024 197.063 22.464 196.807 22.736C196.567 22.992 196.167 23.12 195.607 23.12C195.063 23.12 194.655 22.992 194.383 22.736C194.127 22.464 193.999 22.032 193.999 21.44L194.023 21.056C193.527 22.432 192.671 23.12 191.455 23.12ZM192.391 20.696C192.839 20.696 193.247 20.384 193.615 19.76C193.983 19.136 194.311 18.024 194.599 16.424L195.055 14C194.399 14.016 193.791 14.272 193.231 14.768C192.671 15.248 192.223 15.888 191.887 16.688C191.551 17.488 191.383 18.336 191.383 19.232C191.383 19.712 191.471 20.08 191.647 20.336C191.839 20.576 192.087 20.696 192.391 20.696Z" fill="#F5F5F5"/>
</svg>
