<svg width="313" height="65" viewBox="0 0 313 65" fill="none" xmlns="http://www.w3.org/2000/svg">
<g clip-path="url(#clip0)">
<path d="M45.8078 32.632C46.1758 32.632 46.4398 32.712 46.5998 32.872C46.7758 33.032 46.8638 33.24 46.8638 33.496C46.8638 33.912 46.7358 34.28 46.4798 34.6C46.2398 34.92 45.8558 35.088 45.3278 35.104C44.0638 35.12 42.9278 35.024 41.9198 34.816C40.7998 37.2 39.4478 39.184 37.8638 40.768C36.2958 42.336 34.7438 43.12 33.2078 43.12C31.7998 43.12 30.7438 42.376 30.0398 40.888C29.3358 39.384 28.9358 37.376 28.8398 34.864C27.8798 37.648 26.7918 39.72 25.5758 41.08C24.3758 42.44 23.0958 43.12 21.7358 43.12C20.1998 43.12 19.0398 42.168 18.2558 40.264C17.4718 38.344 17.0798 35.768 17.0798 32.536C17.0798 30.184 17.2878 27.6 17.7038 24.784C17.8158 23.984 18.0158 23.432 18.3038 23.128C18.6078 22.808 19.0798 22.648 19.7198 22.648C20.1998 22.648 20.5678 22.752 20.8238 22.96C21.0958 23.168 21.2318 23.552 21.2318 24.112C21.2318 24.224 21.2158 24.44 21.1838 24.76C20.7038 28.04 20.4638 30.832 20.4638 33.136C20.4638 35.28 20.6478 36.936 21.0158 38.104C21.3838 39.272 21.8798 39.856 22.5038 39.856C23.0638 39.856 23.7358 39.272 24.5198 38.104C25.3198 36.92 26.1118 35.176 26.8958 32.872C27.6798 30.552 28.3438 27.792 28.8878 24.592C29.0158 23.856 29.2478 23.352 29.5838 23.08C29.9358 22.792 30.4078 22.648 30.9998 22.648C31.4958 22.648 31.8558 22.76 32.0798 22.984C32.3198 23.192 32.4398 23.512 32.4398 23.944C32.4398 24.2 32.4238 24.4 32.3918 24.544C31.9438 27.152 31.7198 29.76 31.7198 32.368C31.7198 34.144 31.7758 35.56 31.8878 36.616C32.0158 37.672 32.2478 38.48 32.5838 39.04C32.9358 39.584 33.4398 39.856 34.0958 39.856C34.8638 39.856 35.7198 39.28 36.6638 38.128C37.6078 36.96 38.4718 35.512 39.2558 33.784C38.2798 33.176 37.5438 32.392 37.0478 31.432C36.5518 30.456 36.3038 29.336 36.3038 28.072C36.3038 26.808 36.4958 25.744 36.8798 24.88C37.2798 24 37.8158 23.344 38.4878 22.912C39.1758 22.48 39.9358 22.264 40.7678 22.264C41.7918 22.264 42.5998 22.632 43.1918 23.368C43.7998 24.104 44.1038 25.112 44.1038 26.392C44.1038 28.2 43.7118 30.208 42.9278 32.416C43.7438 32.56 44.7038 32.632 45.8078 32.632ZM38.7278 27.904C38.7278 29.472 39.2318 30.632 40.2398 31.384C40.8638 29.592 41.1758 28.112 41.1758 26.944C41.1758 26.272 41.0878 25.784 40.9118 25.48C40.7358 25.16 40.4958 25 40.1918 25C39.7598 25 39.4078 25.256 39.1358 25.768C38.8638 26.264 38.7278 26.976 38.7278 27.904ZM56.7709 35.632C56.9789 35.632 57.1389 35.736 57.2509 35.944C57.3629 36.152 57.4189 36.416 57.4189 36.736C57.4189 37.504 57.1869 37.96 56.7229 38.104C55.7629 38.44 54.7069 38.632 53.5549 38.68C53.2509 40.024 52.6509 41.104 51.7549 41.92C50.8589 42.72 49.8429 43.12 48.7069 43.12C47.7469 43.12 46.9229 42.888 46.2349 42.424C45.5629 41.96 45.0509 41.344 44.6989 40.576C44.3469 39.808 44.1709 38.976 44.1709 38.08C44.1709 36.864 44.4029 35.784 44.8669 34.84C45.3309 33.88 45.9709 33.136 46.7869 32.608C47.6029 32.064 48.5069 31.792 49.4989 31.792C50.7149 31.792 51.6909 32.216 52.4269 33.064C53.1789 33.896 53.6189 34.928 53.7469 36.16C54.4989 36.112 55.3949 35.952 56.4349 35.68C56.5629 35.648 56.6749 35.632 56.7709 35.632ZM48.8989 40.576C49.4109 40.576 49.8509 40.368 50.2189 39.952C50.6029 39.536 50.8589 38.936 50.9869 38.152C50.4909 37.816 50.1069 37.376 49.8349 36.832C49.5789 36.288 49.4509 35.712 49.4509 35.104C49.4509 34.848 49.4749 34.592 49.5229 34.336H49.4029C48.7629 34.336 48.2269 34.648 47.7949 35.272C47.3789 35.88 47.1709 36.744 47.1709 37.864C47.1709 38.744 47.3389 39.416 47.6749 39.88C48.0269 40.344 48.4349 40.576 48.8989 40.576ZM57.063 43.12C56.455 43.12 56.023 42.8 55.767 42.16C55.527 41.52 55.407 40.496 55.407 39.088C55.407 37.008 55.703 35.032 56.295 33.16C56.439 32.696 56.671 32.36 56.991 32.152C57.327 31.928 57.791 31.816 58.383 31.816C58.703 31.816 58.927 31.856 59.055 31.936C59.183 32.016 59.247 32.168 59.247 32.392C59.247 32.648 59.127 33.224 58.887 34.12C58.727 34.76 58.599 35.32 58.503 35.8C58.407 36.264 58.327 36.848 58.263 37.552C58.695 36.304 59.207 35.248 59.799 34.384C60.407 33.52 61.023 32.88 61.647 32.464C62.287 32.032 62.887 31.816 63.447 31.816C64.007 31.816 64.399 31.944 64.623 32.2C64.863 32.456 64.983 32.848 64.983 33.376C64.983 33.888 64.831 34.816 64.527 36.16C64.399 36.736 64.311 37.168 64.263 37.456C65.063 35.488 65.951 34.056 66.927 33.16C67.903 32.264 68.815 31.816 69.663 31.816C70.703 31.816 71.223 32.336 71.223 33.376C71.223 34 71.047 35.128 70.695 36.76C70.391 38.152 70.239 39.072 70.239 39.52C70.239 40.16 70.471 40.48 70.935 40.48C71.255 40.48 71.631 40.288 72.063 39.904C72.511 39.504 73.103 38.864 73.839 37.984C74.031 37.76 74.247 37.648 74.487 37.648C74.695 37.648 74.855 37.744 74.967 37.936C75.095 38.128 75.159 38.392 75.159 38.728C75.159 39.368 75.007 39.864 74.703 40.216C74.015 41.064 73.271 41.76 72.471 42.304C71.687 42.848 70.791 43.12 69.783 43.12C68.967 43.12 68.351 42.888 67.935 42.424C67.519 41.944 67.311 41.256 67.311 40.36C67.311 39.912 67.423 39.112 67.647 37.96C67.855 36.952 67.959 36.256 67.959 35.872C67.959 35.616 67.871 35.488 67.695 35.488C67.487 35.488 67.191 35.76 66.807 36.304C66.423 36.832 66.039 37.536 65.655 38.416C65.271 39.296 64.959 40.224 64.719 41.2C64.543 41.968 64.335 42.48 64.095 42.736C63.871 42.992 63.503 43.12 62.991 43.12C62.463 43.12 62.063 42.872 61.791 42.376C61.535 41.864 61.407 41.248 61.407 40.528C61.407 39.92 61.487 39.04 61.647 37.888C61.775 36.864 61.839 36.192 61.839 35.872C61.839 35.616 61.751 35.488 61.575 35.488C61.335 35.488 61.031 35.776 60.663 36.352C60.295 36.928 59.935 37.664 59.583 38.56C59.247 39.456 58.975 40.336 58.767 41.2C58.591 41.952 58.383 42.464 58.143 42.736C57.919 42.992 57.559 43.12 57.063 43.12ZM83.9224 37.648C84.1304 37.648 84.2904 37.744 84.4024 37.936C84.5304 38.128 84.5944 38.392 84.5944 38.728C84.5944 39.368 84.4424 39.864 84.1384 40.216C83.5464 40.936 82.7064 41.6 81.6184 42.208C80.5464 42.816 79.3944 43.12 78.1624 43.12C76.4824 43.12 75.1784 42.664 74.2504 41.752C73.3224 40.84 72.8584 39.592 72.8584 38.008C72.8584 36.904 73.0904 35.88 73.5544 34.936C74.0184 33.976 74.6584 33.216 75.4744 32.656C76.3064 32.096 77.2424 31.816 78.2824 31.816C79.2104 31.816 79.9544 32.096 80.5144 32.656C81.0744 33.2 81.3544 33.944 81.3544 34.888C81.3544 35.992 80.9544 36.944 80.1544 37.744C79.3704 38.528 78.0344 39.152 76.1464 39.616C76.5464 40.352 77.3064 40.72 78.4264 40.72C79.1464 40.72 79.9624 40.472 80.8744 39.976C81.8024 39.464 82.6024 38.8 83.2744 37.984C83.4664 37.76 83.6824 37.648 83.9224 37.648ZM77.8744 34.168C77.2824 34.168 76.7784 34.512 76.3624 35.2C75.9624 35.888 75.7624 36.72 75.7624 37.696V37.744C76.7064 37.52 77.4504 37.184 77.9944 36.736C78.5384 36.288 78.8104 35.768 78.8104 35.176C78.8104 34.872 78.7224 34.632 78.5464 34.456C78.3864 34.264 78.1624 34.168 77.8744 34.168ZM84.3443 43.12C83.7363 43.12 83.3043 42.8 83.0483 42.16C82.8083 41.52 82.6883 40.496 82.6883 39.088C82.6883 37.008 82.9843 35.032 83.5763 33.16C83.7203 32.696 83.9523 32.36 84.2723 32.152C84.6083 31.928 85.0723 31.816 85.6643 31.816C85.9843 31.816 86.2083 31.856 86.3363 31.936C86.4643 32.016 86.5283 32.168 86.5283 32.392C86.5283 32.648 86.4083 33.224 86.1683 34.12C86.0083 34.76 85.8803 35.32 85.7843 35.8C85.6883 36.28 85.6083 36.872 85.5443 37.576C86.0723 36.2 86.6643 35.08 87.3203 34.216C87.9763 33.352 88.6163 32.736 89.2403 32.368C89.8803 32 90.4643 31.816 90.9923 31.816C91.5043 31.816 91.8883 31.952 92.1443 32.224C92.4163 32.48 92.5523 32.864 92.5523 33.376C92.5523 33.792 92.4643 34.576 92.2883 35.728C92.1283 36.704 92.0003 37.632 91.9043 38.512C91.8083 39.376 91.7603 40.344 91.7603 41.416C91.7603 42.024 91.6323 42.464 91.3763 42.736C91.1363 42.992 90.7363 43.12 90.1763 43.12C89.6483 43.12 89.2643 42.984 89.0243 42.712C88.7843 42.44 88.6643 42.032 88.6643 41.488C88.6643 40.848 88.7763 39.792 89.0003 38.32C89.1923 37.04 89.2883 36.224 89.2883 35.872C89.2883 35.616 89.2003 35.488 89.0243 35.488C88.8163 35.488 88.5203 35.76 88.1363 36.304C87.7683 36.832 87.3843 37.536 86.9843 38.416C86.6003 39.296 86.2883 40.224 86.0483 41.2C85.8723 41.952 85.6643 42.464 85.4243 42.736C85.2003 42.992 84.8403 43.12 84.3443 43.12ZM103.761 30.232C103.089 30.232 102.585 30.08 102.249 29.776C101.913 29.456 101.745 29.016 101.745 28.456C101.745 27.896 101.961 27.432 102.393 27.064C102.841 26.68 103.393 26.488 104.049 26.488C104.641 26.488 105.121 26.632 105.489 26.92C105.857 27.208 106.041 27.616 106.041 28.144C106.041 28.784 105.833 29.296 105.417 29.68C105.001 30.048 104.449 30.232 103.761 30.232ZM103.569 43.12C102.529 43.12 101.769 42.752 101.289 42.016C100.825 41.28 100.593 40.304 100.593 39.088C100.593 38.368 100.681 37.448 100.857 36.328C101.049 35.192 101.289 34.136 101.577 33.16C101.721 32.648 101.913 32.296 102.153 32.104C102.393 31.912 102.777 31.816 103.305 31.816C104.121 31.816 104.529 32.088 104.529 32.632C104.529 33.032 104.377 33.96 104.073 35.416C103.689 37.176 103.497 38.368 103.497 38.992C103.497 39.472 103.561 39.84 103.689 40.096C103.817 40.352 104.033 40.48 104.337 40.48C104.625 40.48 104.985 40.28 105.417 39.88C105.849 39.48 106.425 38.848 107.145 37.984C107.337 37.76 107.553 37.648 107.793 37.648C108.001 37.648 108.161 37.744 108.273 37.936C108.401 38.128 108.465 38.392 108.465 38.728C108.465 39.368 108.313 39.864 108.009 40.216C106.425 42.152 104.945 43.12 103.569 43.12ZM108.227 43.12C107.619 43.12 107.187 42.8 106.931 42.16C106.691 41.52 106.571 40.496 106.571 39.088C106.571 37.008 106.867 35.032 107.459 33.16C107.603 32.696 107.835 32.36 108.155 32.152C108.491 31.928 108.955 31.816 109.547 31.816C109.867 31.816 110.091 31.856 110.219 31.936C110.347 32.016 110.411 32.168 110.411 32.392C110.411 32.648 110.291 33.224 110.051 34.12C109.891 34.76 109.763 35.32 109.667 35.8C109.571 36.28 109.491 36.872 109.427 37.576C109.955 36.2 110.547 35.08 111.203 34.216C111.859 33.352 112.499 32.736 113.123 32.368C113.763 32 114.347 31.816 114.875 31.816C115.387 31.816 115.771 31.952 116.027 32.224C116.299 32.48 116.435 32.864 116.435 33.376C116.435 33.792 116.347 34.576 116.171 35.728C116.011 36.704 115.883 37.632 115.787 38.512C115.691 39.376 115.643 40.344 115.643 41.416C115.643 42.024 115.515 42.464 115.259 42.736C115.019 42.992 114.619 43.12 114.059 43.12C113.531 43.12 113.147 42.984 112.907 42.712C112.667 42.44 112.547 42.032 112.547 41.488C112.547 40.848 112.659 39.792 112.883 38.32C113.075 37.04 113.171 36.224 113.171 35.872C113.171 35.616 113.083 35.488 112.907 35.488C112.699 35.488 112.403 35.76 112.019 36.304C111.651 36.832 111.267 37.536 110.867 38.416C110.483 39.296 110.171 40.224 109.931 41.2C109.755 41.952 109.547 42.464 109.307 42.736C109.083 42.992 108.723 43.12 108.227 43.12ZM134.22 43.12C132.316 43.12 130.66 42.776 129.252 42.088C127.844 41.384 126.764 40.392 126.012 39.112C125.26 37.832 124.884 36.344 124.884 34.648C124.884 32.296 125.324 30.208 126.204 28.384C127.1 26.56 128.308 25.152 129.828 24.16C131.348 23.152 133.036 22.648 134.892 22.648C136.62 22.648 137.932 23.096 138.828 23.992C139.724 24.872 140.172 26.04 140.172 27.496C140.172 28.472 139.996 29.256 139.644 29.848C139.308 30.44 138.82 30.736 138.18 30.736C137.732 30.736 137.38 30.632 137.124 30.424C136.868 30.216 136.74 29.912 136.74 29.512C136.74 29.368 136.772 29.104 136.836 28.72C136.932 28.24 136.98 27.856 136.98 27.568C136.98 26.112 136.204 25.384 134.652 25.384C133.596 25.384 132.588 25.728 131.628 26.416C130.668 27.104 129.892 28.12 129.3 29.464C128.708 30.792 128.412 32.376 128.412 34.216C128.412 36.136 128.948 37.624 130.02 38.68C131.092 39.72 132.676 40.24 134.772 40.24C135.812 40.24 136.86 40.112 137.916 39.856C138.988 39.584 140.172 39.176 141.468 38.632C141.708 38.536 141.908 38.488 142.068 38.488C142.324 38.488 142.516 38.584 142.644 38.776C142.772 38.968 142.836 39.216 142.836 39.52C142.836 40.496 142.308 41.216 141.252 41.68C140.116 42.176 138.932 42.544 137.7 42.784C136.484 43.008 135.324 43.12 134.22 43.12ZM154.273 37.648C154.481 37.648 154.641 37.744 154.753 37.936C154.881 38.128 154.945 38.392 154.945 38.728C154.945 39.368 154.793 39.864 154.489 40.216C153.753 41.064 152.993 41.76 152.209 42.304C151.441 42.848 150.561 43.12 149.569 43.12C148.753 43.12 148.137 42.888 147.721 42.424C147.305 41.944 147.097 41.256 147.097 40.36C147.097 39.912 147.209 39.112 147.433 37.96C147.641 36.952 147.745 36.256 147.745 35.872C147.745 35.616 147.657 35.488 147.481 35.488C147.273 35.488 146.977 35.76 146.593 36.304C146.209 36.832 145.825 37.536 145.441 38.416C145.057 39.296 144.745 40.224 144.505 41.2C144.201 42.48 143.449 43.12 142.249 43.12C141.769 43.12 141.449 42.952 141.289 42.616C141.145 42.264 141.073 41.64 141.073 40.744C141.073 40.232 141.081 39.824 141.097 39.52L141.121 37.6C141.121 35.136 141.369 32.568 141.865 29.896C142.377 27.224 143.121 24.984 144.097 23.176C145.089 21.352 146.273 20.44 147.649 20.44C148.385 20.44 148.977 20.76 149.425 21.4C149.889 22.024 150.121 22.84 150.121 23.848C150.121 25.464 149.649 27.144 148.705 28.888C147.761 30.616 146.225 32.64 144.097 34.96C144.049 35.792 144.025 36.648 144.025 37.528C144.553 36.168 145.137 35.064 145.777 34.216C146.433 33.352 147.073 32.736 147.697 32.368C148.337 32 148.921 31.816 149.449 31.816C150.489 31.816 151.009 32.336 151.009 33.376C151.009 34 150.833 35.128 150.481 36.76C150.177 38.152 150.025 39.072 150.025 39.52C150.025 40.16 150.257 40.48 150.721 40.48C151.041 40.48 151.417 40.288 151.849 39.904C152.297 39.504 152.889 38.864 153.625 37.984C153.817 37.76 154.033 37.648 154.273 37.648ZM147.145 22.816C146.857 22.816 146.537 23.232 146.185 24.064C145.833 24.88 145.489 25.992 145.153 27.4C144.833 28.792 144.569 30.312 144.361 31.96C145.353 30.792 146.169 29.52 146.809 28.144C147.465 26.768 147.793 25.52 147.793 24.4C147.793 23.888 147.737 23.496 147.625 23.224C147.513 22.952 147.353 22.816 147.145 22.816ZM156.144 30.232C155.472 30.232 154.968 30.08 154.632 29.776C154.296 29.456 154.128 29.016 154.128 28.456C154.128 27.896 154.344 27.432 154.776 27.064C155.224 26.68 155.776 26.488 156.432 26.488C157.024 26.488 157.504 26.632 157.872 26.92C158.24 27.208 158.424 27.616 158.424 28.144C158.424 28.784 158.216 29.296 157.8 29.68C157.384 30.048 156.832 30.232 156.144 30.232ZM155.952 43.12C154.912 43.12 154.152 42.752 153.672 42.016C153.208 41.28 152.976 40.304 152.976 39.088C152.976 38.368 153.064 37.448 153.24 36.328C153.432 35.192 153.672 34.136 153.96 33.16C154.104 32.648 154.296 32.296 154.536 32.104C154.776 31.912 155.16 31.816 155.688 31.816C156.504 31.816 156.912 32.088 156.912 32.632C156.912 33.032 156.76 33.96 156.456 35.416C156.072 37.176 155.88 38.368 155.88 38.992C155.88 39.472 155.944 39.84 156.072 40.096C156.2 40.352 156.416 40.48 156.72 40.48C157.008 40.48 157.368 40.28 157.8 39.88C158.232 39.48 158.808 38.848 159.528 37.984C159.72 37.76 159.936 37.648 160.176 37.648C160.384 37.648 160.544 37.744 160.656 37.936C160.784 38.128 160.848 38.392 160.848 38.728C160.848 39.368 160.696 39.864 160.392 40.216C158.808 42.152 157.328 43.12 155.952 43.12ZM160.61 43.12C160.002 43.12 159.57 42.8 159.314 42.16C159.074 41.52 158.954 40.496 158.954 39.088C158.954 37.008 159.25 35.032 159.842 33.16C159.986 32.696 160.218 32.36 160.538 32.152C160.874 31.928 161.338 31.816 161.93 31.816C162.25 31.816 162.474 31.856 162.602 31.936C162.73 32.016 162.794 32.168 162.794 32.392C162.794 32.648 162.674 33.224 162.434 34.12C162.274 34.76 162.146 35.32 162.05 35.8C161.954 36.28 161.874 36.872 161.81 37.576C162.338 36.2 162.93 35.08 163.586 34.216C164.242 33.352 164.882 32.736 165.506 32.368C166.146 32 166.73 31.816 167.258 31.816C168.298 31.816 168.818 32.336 168.818 33.376C168.818 34 168.642 35.128 168.29 36.76C167.986 38.152 167.834 39.072 167.834 39.52C167.834 40.16 168.066 40.48 168.53 40.48C168.85 40.48 169.226 40.288 169.658 39.904C170.106 39.504 170.698 38.864 171.434 37.984C171.626 37.76 171.842 37.648 172.082 37.648C172.29 37.648 172.45 37.744 172.562 37.936C172.69 38.128 172.754 38.392 172.754 38.728C172.754 39.368 172.602 39.864 172.298 40.216C171.61 41.064 170.866 41.76 170.066 42.304C169.282 42.848 168.386 43.12 167.378 43.12C166.562 43.12 165.946 42.888 165.53 42.424C165.114 41.944 164.906 41.256 164.906 40.36C164.906 39.912 165.018 39.112 165.242 37.96C165.45 36.952 165.554 36.256 165.554 35.872C165.554 35.616 165.466 35.488 165.29 35.488C165.082 35.488 164.786 35.76 164.402 36.304C164.034 36.832 163.65 37.536 163.25 38.416C162.866 39.296 162.554 40.224 162.314 41.2C162.138 41.952 161.93 42.464 161.69 42.736C161.466 42.992 161.106 43.12 160.61 43.12ZM173.572 43.12C172.66 43.12 171.916 42.76 171.34 42.04C170.78 41.32 170.5 40.376 170.5 39.208C170.5 37.928 170.796 36.72 171.388 35.584C171.98 34.432 172.764 33.512 173.74 32.824C174.732 32.12 175.78 31.768 176.884 31.768C177.236 31.768 177.468 31.84 177.58 31.984C177.708 32.112 177.812 32.352 177.892 32.704C178.196 32.64 178.532 32.608 178.9 32.608C179.284 32.608 179.58 32.704 179.788 32.896C179.996 33.088 180.1 33.36 180.1 33.712C180.1 34.08 180.02 34.72 179.86 35.632C179.684 36.608 179.548 37.544 179.452 38.44C179.356 39.32 179.308 40.312 179.308 41.416C179.308 42.024 179.18 42.464 178.924 42.736C178.684 42.992 178.284 43.12 177.724 43.12C177.18 43.12 176.772 42.992 176.5 42.736C176.244 42.464 176.116 42.032 176.116 41.44L176.14 41.056C175.644 42.432 174.788 43.12 173.572 43.12ZM174.508 40.696C174.956 40.696 175.364 40.384 175.732 39.76C176.1 39.136 176.428 38.024 176.716 36.424L177.172 34C176.516 34.016 175.908 34.272 175.348 34.768C174.788 35.248 174.34 35.888 174.004 36.688C173.668 37.488 173.5 38.336 173.5 39.232C173.5 39.712 173.588 40.08 173.764 40.336C173.956 40.576 174.204 40.696 174.508 40.696ZM192.572 43.12C191.98 43.12 191.556 42.992 191.3 42.736C191.044 42.464 190.916 41.96 190.916 41.224C190.916 40.728 190.964 40.096 191.06 39.328C191.172 38.544 191.348 37.472 191.588 36.112C192.004 33.6 192.332 31.424 192.572 29.584C192.716 28.432 192.788 27.472 192.788 26.704C192.788 25.984 192.524 25.624 191.996 25.624C191.58 25.624 191.076 25.84 190.484 26.272C189.908 26.688 189.268 27.36 188.564 28.288C188.34 28.592 188.092 28.744 187.82 28.744C187.596 28.744 187.396 28.64 187.22 28.432C187.06 28.208 186.98 27.96 186.98 27.688C186.98 27.432 187.028 27.176 187.124 26.92C187.236 26.648 187.412 26.344 187.652 26.008C188.42 24.936 189.276 24.112 190.22 23.536C191.164 22.944 192.108 22.648 193.052 22.648C193.932 22.648 194.604 22.928 195.068 23.488C195.548 24.048 195.788 24.864 195.788 25.936C195.788 26.368 195.748 26.88 195.668 27.472C195.588 28.048 195.516 28.52 195.452 28.888C195.388 29.256 195.34 29.512 195.308 29.656C196.22 27.048 197.244 25.232 198.38 24.208C199.516 23.168 200.764 22.648 202.124 22.648C203.164 22.648 203.98 23.016 204.572 23.752C205.18 24.488 205.484 25.528 205.484 26.872C205.484 27.4 205.412 28.056 205.268 28.84C206.068 26.632 207.004 25.048 208.076 24.088C209.148 23.128 210.38 22.648 211.772 22.648C212.892 22.648 213.748 23.008 214.34 23.728C214.948 24.448 215.252 25.456 215.252 26.752C215.252 27.456 215.148 28.312 214.94 29.32L213.476 36.184C213.316 36.984 213.236 37.672 213.236 38.248C213.236 38.92 213.388 39.424 213.692 39.76C214.012 40.096 214.452 40.264 215.012 40.264C215.54 40.264 216.052 40.088 216.548 39.736C217.06 39.384 217.66 38.8 218.348 37.984C218.54 37.76 218.756 37.648 218.996 37.648C219.204 37.648 219.364 37.744 219.476 37.936C219.604 38.128 219.668 38.392 219.668 38.728C219.668 39.352 219.516 39.848 219.212 40.216C218.38 41.224 217.556 41.96 216.74 42.424C215.924 42.888 215.068 43.12 214.172 43.12C212.812 43.12 211.748 42.72 210.98 41.92C210.212 41.104 209.828 40.016 209.828 38.656C209.828 37.712 210.02 36.344 210.404 34.552L211.364 30.16C211.396 30.016 211.452 29.76 211.532 29.392C211.612 29.024 211.676 28.68 211.724 28.36C211.772 28.024 211.796 27.696 211.796 27.376C211.796 26.816 211.684 26.4 211.46 26.128C211.252 25.84 210.948 25.696 210.548 25.696C209.796 25.696 209.004 26.184 208.172 27.16C207.356 28.12 206.572 29.72 205.82 31.96C205.084 34.2 204.484 37.112 204.02 40.696C203.908 41.656 203.708 42.304 203.42 42.64C203.148 42.96 202.7 43.12 202.076 43.12C201.532 43.12 201.132 42.992 200.876 42.736C200.636 42.48 200.516 42 200.516 41.296C200.516 40.64 200.604 39.784 200.78 38.728C200.956 37.656 201.18 36.4 201.452 34.96C202.188 31.088 202.556 28.592 202.556 27.472C202.556 26.864 202.436 26.416 202.196 26.128C201.972 25.84 201.628 25.696 201.164 25.696C200.38 25.696 199.572 26.144 198.74 27.04C197.908 27.92 197.092 29.496 196.292 31.768C195.508 34.024 194.852 37.08 194.324 40.936C194.212 41.752 194.044 42.32 193.82 42.64C193.612 42.96 193.196 43.12 192.572 43.12ZM220.686 43.12C219.694 43.12 218.902 42.76 218.31 42.04C217.718 41.32 217.422 40.376 217.422 39.208C217.422 37.928 217.718 36.72 218.31 35.584C218.902 34.432 219.686 33.512 220.662 32.824C221.654 32.12 222.702 31.768 223.806 31.768C224.158 31.768 224.39 31.84 224.502 31.984C224.63 32.112 224.734 32.352 224.814 32.704C225.15 32.64 225.502 32.608 225.87 32.608C226.654 32.608 227.046 32.888 227.046 33.448C227.046 33.784 226.926 34.584 226.686 35.848C226.318 37.688 226.134 38.968 226.134 39.688C226.134 39.928 226.19 40.12 226.302 40.264C226.43 40.408 226.59 40.48 226.782 40.48C227.086 40.48 227.454 40.288 227.886 39.904C228.318 39.504 228.902 38.864 229.638 37.984C229.83 37.76 230.046 37.648 230.286 37.648C230.494 37.648 230.654 37.744 230.766 37.936C230.894 38.128 230.958 38.392 230.958 38.728C230.958 39.368 230.806 39.864 230.502 40.216C229.846 41.032 229.15 41.72 228.414 42.28C227.678 42.84 226.966 43.12 226.278 43.12C225.75 43.12 225.262 42.944 224.814 42.592C224.382 42.224 224.054 41.728 223.83 41.104C222.998 42.448 221.95 43.12 220.686 43.12ZM221.55 40.696C221.902 40.696 222.238 40.488 222.558 40.072C222.878 39.656 223.11 39.104 223.254 38.416L224.142 34C223.47 34.016 222.846 34.272 222.27 34.768C221.71 35.248 221.262 35.888 220.926 36.688C220.59 37.488 220.422 38.336 220.422 39.232C220.422 39.728 220.518 40.096 220.71 40.336C220.918 40.576 221.198 40.696 221.55 40.696ZM230.711 43.12C230.103 43.12 229.671 42.8 229.415 42.16C229.175 41.52 229.055 40.496 229.055 39.088C229.055 37.008 229.351 35.032 229.943 33.16C230.087 32.696 230.319 32.36 230.639 32.152C230.975 31.928 231.439 31.816 232.031 31.816C232.351 31.816 232.575 31.856 232.703 31.936C232.831 32.016 232.895 32.168 232.895 32.392C232.895 32.648 232.775 33.224 232.535 34.12C232.375 34.76 232.247 35.32 232.151 35.8C232.055 36.28 231.975 36.872 231.911 37.576C232.439 36.2 233.031 35.08 233.687 34.216C234.343 33.352 234.983 32.736 235.607 32.368C236.247 32 236.831 31.816 237.359 31.816C238.399 31.816 238.919 32.336 238.919 33.376C238.919 33.584 238.847 34.088 238.703 34.888C238.575 35.528 238.511 35.928 238.511 36.088C238.511 36.648 238.711 36.928 239.111 36.928C239.559 36.928 240.135 36.576 240.839 35.872C241.047 35.664 241.263 35.56 241.487 35.56C241.695 35.56 241.855 35.656 241.967 35.848C242.095 36.024 242.159 36.264 242.159 36.568C242.159 37.16 241.999 37.624 241.679 37.96C241.231 38.424 240.703 38.824 240.095 39.16C239.503 39.48 238.871 39.64 238.199 39.64C237.351 39.64 236.703 39.424 236.255 38.992C235.823 38.56 235.607 37.976 235.607 37.24C235.607 37 235.631 36.76 235.679 36.52C235.711 36.2 235.727 35.984 235.727 35.872C235.727 35.616 235.639 35.488 235.463 35.488C235.223 35.488 234.903 35.76 234.503 36.304C234.119 36.832 233.735 37.536 233.351 38.416C232.967 39.296 232.655 40.224 232.415 41.2C232.239 41.952 232.031 42.464 231.791 42.736C231.567 42.992 231.207 43.12 230.711 43.12ZM253.801 37.648C254.009 37.648 254.169 37.744 254.281 37.936C254.409 38.128 254.473 38.392 254.473 38.728C254.473 39.368 254.321 39.864 254.017 40.216C253.297 41.096 252.569 41.8 251.833 42.328C251.097 42.856 250.225 43.12 249.217 43.12C247.985 43.12 246.993 42.768 246.241 42.064C245.489 41.36 245.113 40.424 245.113 39.256C245.113 38.632 245.433 38.184 246.073 37.912C246.777 37.608 247.281 37.288 247.585 36.952C247.889 36.6 248.041 36.176 248.041 35.68C248.041 35.392 247.977 35.176 247.849 35.032C247.737 34.888 247.593 34.816 247.417 34.816C246.985 34.816 246.505 35.128 245.977 35.752C245.465 36.376 244.985 37.184 244.537 38.176C244.089 39.152 243.737 40.16 243.481 41.2C243.305 41.952 243.097 42.464 242.857 42.736C242.633 42.992 242.273 43.12 241.777 43.12C241.281 43.12 240.913 42.944 240.673 42.592C240.449 42.224 240.297 41.664 240.217 40.912C240.137 40.16 240.097 39.056 240.097 37.6C240.097 35.136 240.345 32.568 240.841 29.896C241.353 27.224 242.097 24.984 243.073 23.176C244.065 21.352 245.249 20.44 246.625 20.44C247.361 20.44 247.953 20.76 248.401 21.4C248.865 22.024 249.097 22.84 249.097 23.848C249.097 25.464 248.625 27.144 247.681 28.888C246.737 30.616 245.201 32.64 243.073 34.96C243.025 35.792 243.001 36.648 243.001 37.528C243.769 35.528 244.649 34.08 245.641 33.184C246.633 32.272 247.561 31.816 248.425 31.816C249.225 31.816 249.865 32.088 250.345 32.632C250.841 33.176 251.089 33.848 251.089 34.648C251.089 35.528 250.865 36.336 250.417 37.072C249.969 37.808 249.201 38.464 248.113 39.04C248.177 39.472 248.369 39.824 248.689 40.096C249.025 40.352 249.425 40.48 249.889 40.48C250.385 40.48 250.865 40.288 251.329 39.904C251.793 39.52 252.401 38.88 253.153 37.984C253.345 37.76 253.561 37.648 253.801 37.648ZM246.121 22.816C245.833 22.816 245.513 23.232 245.161 24.064C244.809 24.88 244.465 25.992 244.129 27.4C243.809 28.792 243.545 30.312 243.337 31.96C244.329 30.792 245.145 29.52 245.785 28.144C246.441 26.768 246.769 25.52 246.769 24.4C246.769 23.888 246.713 23.496 246.601 23.224C246.489 22.952 246.329 22.816 246.121 22.816ZM263.243 37.648C263.451 37.648 263.611 37.744 263.723 37.936C263.851 38.128 263.915 38.392 263.915 38.728C263.915 39.368 263.763 39.864 263.459 40.216C262.867 40.936 262.027 41.6 260.939 42.208C259.867 42.816 258.715 43.12 257.483 43.12C255.803 43.12 254.499 42.664 253.571 41.752C252.643 40.84 252.179 39.592 252.179 38.008C252.179 36.904 252.411 35.88 252.875 34.936C253.339 33.976 253.979 33.216 254.795 32.656C255.627 32.096 256.563 31.816 257.603 31.816C258.531 31.816 259.275 32.096 259.835 32.656C260.395 33.2 260.675 33.944 260.675 34.888C260.675 35.992 260.275 36.944 259.475 37.744C258.691 38.528 257.355 39.152 255.467 39.616C255.867 40.352 256.627 40.72 257.747 40.72C258.467 40.72 259.283 40.472 260.195 39.976C261.123 39.464 261.923 38.8 262.595 37.984C262.787 37.76 263.003 37.648 263.243 37.648ZM257.195 34.168C256.603 34.168 256.099 34.512 255.683 35.2C255.283 35.888 255.083 36.72 255.083 37.696V37.744C256.027 37.52 256.771 37.184 257.315 36.736C257.859 36.288 258.131 35.768 258.131 35.176C258.131 34.872 258.043 34.632 257.867 34.456C257.707 34.264 257.483 34.168 257.195 34.168ZM272.665 37.648C272.873 37.648 273.033 37.744 273.145 37.936C273.273 38.128 273.337 38.392 273.337 38.728C273.337 39.368 273.185 39.864 272.881 40.216C272.193 41.064 271.441 41.76 270.625 42.304C269.809 42.848 268.873 43.12 267.817 43.12C264.553 43.12 262.921 40.824 262.921 36.232C262.921 35.528 262.945 34.816 262.993 34.096H262.057C261.577 34.096 261.249 34.008 261.073 33.832C260.913 33.656 260.833 33.376 260.833 32.992C260.833 32.096 261.193 31.648 261.913 31.648H263.281C263.553 29.888 263.969 28.28 264.529 26.824C265.089 25.368 265.761 24.208 266.545 23.344C267.345 22.48 268.201 22.048 269.113 22.048C269.785 22.048 270.313 22.344 270.697 22.936C271.081 23.528 271.273 24.272 271.273 25.168C271.273 27.648 270.233 29.808 268.153 31.648H270.841C271.097 31.648 271.281 31.704 271.393 31.816C271.505 31.928 271.561 32.136 271.561 32.44C271.561 33.544 270.657 34.096 268.849 34.096H265.921C265.889 34.896 265.873 35.52 265.873 35.968C265.873 37.632 266.065 38.8 266.449 39.472C266.849 40.144 267.473 40.48 268.321 40.48C269.009 40.48 269.617 40.272 270.145 39.856C270.673 39.44 271.297 38.816 272.017 37.984C272.209 37.76 272.425 37.648 272.665 37.648ZM268.465 24.352C268.225 24.352 267.953 24.656 267.649 25.264C267.361 25.856 267.081 26.688 266.809 27.76C266.553 28.816 266.337 29.992 266.161 31.288C267.105 30.472 267.809 29.56 268.273 28.552C268.753 27.528 268.993 26.6 268.993 25.768C268.993 24.824 268.817 24.352 268.465 24.352ZM274.526 30.232C273.854 30.232 273.35 30.08 273.014 29.776C272.678 29.456 272.51 29.016 272.51 28.456C272.51 27.896 272.726 27.432 273.158 27.064C273.606 26.68 274.158 26.488 274.814 26.488C275.406 26.488 275.886 26.632 276.254 26.92C276.622 27.208 276.806 27.616 276.806 28.144C276.806 28.784 276.598 29.296 276.182 29.68C275.766 30.048 275.214 30.232 274.526 30.232ZM274.334 43.12C273.294 43.12 272.534 42.752 272.054 42.016C271.59 41.28 271.358 40.304 271.358 39.088C271.358 38.368 271.446 37.448 271.622 36.328C271.814 35.192 272.054 34.136 272.342 33.16C272.486 32.648 272.678 32.296 272.918 32.104C273.158 31.912 273.542 31.816 274.07 31.816C274.886 31.816 275.294 32.088 275.294 32.632C275.294 33.032 275.142 33.96 274.838 35.416C274.454 37.176 274.262 38.368 274.262 38.992C274.262 39.472 274.326 39.84 274.454 40.096C274.582 40.352 274.798 40.48 275.102 40.48C275.39 40.48 275.75 40.28 276.182 39.88C276.614 39.48 277.19 38.848 277.91 37.984C278.102 37.76 278.318 37.648 278.558 37.648C278.766 37.648 278.926 37.744 279.038 37.936C279.166 38.128 279.23 38.392 279.23 38.728C279.23 39.368 279.078 39.864 278.774 40.216C277.19 42.152 275.71 43.12 274.334 43.12ZM278.993 43.12C278.385 43.12 277.953 42.8 277.697 42.16C277.457 41.52 277.337 40.496 277.337 39.088C277.337 37.008 277.633 35.032 278.225 33.16C278.369 32.696 278.601 32.36 278.921 32.152C279.257 31.928 279.721 31.816 280.313 31.816C280.633 31.816 280.857 31.856 280.985 31.936C281.113 32.016 281.177 32.168 281.177 32.392C281.177 32.648 281.057 33.224 280.817 34.12C280.657 34.76 280.529 35.32 280.433 35.8C280.337 36.28 280.257 36.872 280.193 37.576C280.721 36.2 281.313 35.08 281.969 34.216C282.625 33.352 283.265 32.736 283.889 32.368C284.529 32 285.113 31.816 285.641 31.816C286.681 31.816 287.201 32.336 287.201 33.376C287.201 34 287.025 35.128 286.673 36.76C286.369 38.152 286.217 39.072 286.217 39.52C286.217 40.16 286.449 40.48 286.913 40.48C287.233 40.48 287.609 40.288 288.041 39.904C288.489 39.504 289.081 38.864 289.817 37.984C290.009 37.76 290.225 37.648 290.465 37.648C290.673 37.648 290.833 37.744 290.945 37.936C291.073 38.128 291.137 38.392 291.137 38.728C291.137 39.368 290.985 39.864 290.681 40.216C289.993 41.064 289.249 41.76 288.449 42.304C287.665 42.848 286.769 43.12 285.761 43.12C284.945 43.12 284.329 42.888 283.913 42.424C283.497 41.944 283.289 41.256 283.289 40.36C283.289 39.912 283.401 39.112 283.625 37.96C283.833 36.952 283.937 36.256 283.937 35.872C283.937 35.616 283.849 35.488 283.673 35.488C283.465 35.488 283.169 35.76 282.785 36.304C282.417 36.832 282.033 37.536 281.633 38.416C281.249 39.296 280.937 40.224 280.697 41.2C280.521 41.952 280.313 42.464 280.073 42.736C279.849 42.992 279.489 43.12 278.993 43.12ZM297.331 32.608C297.731 32.608 298.011 32.672 298.171 32.8C298.347 32.912 298.435 33.144 298.435 33.496C298.435 33.688 298.427 33.84 298.411 33.952C298.347 34.448 298.147 35.728 297.811 37.792C297.571 39.184 297.419 40.104 297.355 40.552C296.747 44.68 295.923 47.936 294.883 50.32C293.859 52.72 292.483 53.92 290.755 53.92C289.939 53.92 289.275 53.664 288.763 53.152C288.251 52.656 287.995 52 287.995 51.184C287.995 50.048 288.443 48.824 289.339 47.512C290.235 46.216 291.915 44.616 294.379 42.712L294.523 41.776C294.251 42.208 293.891 42.544 293.443 42.784C293.011 43.008 292.579 43.12 292.147 43.12C291.155 43.12 290.363 42.76 289.771 42.04C289.179 41.32 288.883 40.376 288.883 39.208C288.883 37.928 289.179 36.72 289.771 35.584C290.363 34.432 291.147 33.512 292.123 32.824C293.115 32.12 294.163 31.768 295.267 31.768C295.619 31.768 295.851 31.84 295.963 31.984C296.091 32.112 296.195 32.352 296.275 32.704C296.579 32.64 296.931 32.608 297.331 32.608ZM293.011 40.696C293.379 40.696 293.731 40.472 294.067 40.024C294.403 39.576 294.643 38.936 294.787 38.104L295.555 34C294.899 34.016 294.291 34.272 293.731 34.768C293.171 35.248 292.723 35.888 292.387 36.688C292.051 37.488 291.883 38.336 291.883 39.232C291.883 39.728 291.979 40.096 292.171 40.336C292.379 40.576 292.659 40.696 293.011 40.696ZM291.019 51.592C291.419 51.592 291.867 51.112 292.363 50.152C292.875 49.192 293.363 47.664 293.827 45.568C292.595 46.624 291.707 47.576 291.163 48.424C290.619 49.272 290.347 50.016 290.347 50.656C290.347 50.928 290.395 51.152 290.491 51.328C290.603 51.504 290.779 51.592 291.019 51.592Z" fill="#F5F5F5"/>
</g>
<defs>
<clipPath id="clip0">
<rect y="0.0371094" width="313" height="64.9629" fill="white"/>
</clipPath>
</defs>
</svg>
