<svg width="557" height="369" viewBox="0 0 557 369" fill="none" xmlns="http://www.w3.org/2000/svg">
<g clip-path="url(#clip0)">
<path d="M416.924 233.535H415.927V331.745H416.924V233.535Z" fill="#3F3D56"/>
<path d="M421.426 130.715C418.664 130.715 416.426 132.954 416.426 135.715V232.303C421.071 222.18 428.016 213.28 436.708 206.311C436.883 206.167 437.061 206.027 437.239 205.889C439.007 204.495 440.841 203.186 442.74 201.963C442.864 201.885 442.987 201.805 443.111 201.73C454.54 194.459 467.813 190.608 481.362 190.63H552C554.761 190.63 557 188.392 557 185.63V135.715C557 132.954 554.761 130.715 552 130.715H421.426Z" fill="#353636"/>
<path d="M422.225 151.385H505.406V148.231H422.225V151.385Z" fill="#F2F2F2"/>
<path d="M422.225 158.744H505.406V155.59H422.225V158.744Z" fill="#F2F2F2"/>
<path d="M422.225 166.103H505.406V162.949H422.225V166.103Z" fill="#F2F2F2"/>
<path d="M416.426 245.002C422.762 245.002 427.899 239.868 427.899 233.535C427.899 227.203 422.762 222.069 416.426 222.069C410.089 222.069 404.953 227.203 404.953 233.535C404.953 239.868 410.089 245.002 416.426 245.002Z" fill="#C65E57"/>
<path d="M188.961 232.538H187.963V330.748H188.961V232.538Z" fill="#3F3D56"/>
<path d="M244.829 175.208H243.832V273.418H244.829V175.208Z" fill="#3F3D56"/>
<path d="M444.399 335.734H149.093C149.093 335.734 143.107 264.46 178.524 263.65C213.941 262.841 209.95 295.237 254.346 250.692C298.741 206.146 352.615 208.576 359.598 234.898C366.582 261.221 346.13 282.279 383.542 275.799C420.954 269.32 474.827 286.328 444.399 335.734Z" fill="#C65E57"/>
<path d="M291.761 335.75L290.764 335.717C293.089 288.792 305.195 258.641 314.941 241.612C325.523 223.121 335.72 215.636 335.822 215.562L336.485 216.168C336.384 216.24 326.306 223.651 315.809 242.017C306.117 258.974 294.077 289.001 291.761 335.75Z" fill="#F2F2F2"/>
<path d="M398.64 335.847L397.682 335.62C409.214 303.485 436.372 283.196 436.645 282.995L437.315 283.594C437.044 283.794 410.09 303.94 398.64 335.847Z" fill="#F2F2F2"/>
<path d="M195.605 335.789L194.617 335.678C197.774 317.875 194.297 299.534 184.844 284.119C177.678 272.343 169.501 265.911 169.419 265.847L170.11 265.262C170.193 265.327 178.496 271.858 185.738 283.76C195.279 299.315 198.789 317.824 195.605 335.789Z" fill="#F2F2F2"/>
<path d="M301.032 340.61C416.051 340.61 509.292 338.446 509.292 335.776C509.292 333.106 416.051 330.941 301.032 330.941C186.013 330.941 92.7715 333.106 92.7715 335.776C92.7715 338.446 186.013 340.61 301.032 340.61Z" fill="#C65E57"/>
<path d="M301.032 355.113C380.66 355.113 445.212 353.615 445.212 351.767C445.212 349.918 380.66 348.42 301.032 348.42C221.403 348.42 156.852 349.918 156.852 351.767C156.852 353.615 221.403 355.113 301.032 355.113Z" fill="#C65E57"/>
<path d="M301.098 369C366.054 369 418.712 367.778 418.712 366.27C418.712 364.762 366.054 363.54 301.098 363.54C236.141 363.54 183.483 364.762 183.483 366.27C183.483 367.778 236.141 369 301.098 369Z" fill="#C65E57"/>
<path d="M366.269 26.3225H324.072V78.718H366.269V26.3225Z" fill="#2F2E41"/>
<path d="M385.446 163.573C385.446 163.573 399.557 184.085 392.502 189.213C385.446 194.341 378.391 166.778 378.391 166.778L385.446 163.573Z" fill="#FFB8B8"/>
<path d="M388.012 166.137L377.108 170.624L360.432 120.625L360.714 118.35L366.846 69.3447C366.846 69.3447 371.163 68.9537 373.35 71.851C374.043 72.8065 374.457 73.9364 374.543 75.1138C375.184 81.5238 371.977 116.779 371.977 116.779C371.977 116.779 372.619 120.625 373.26 121.907C373.901 123.189 375.184 122.548 374.543 124.471C373.901 126.394 372.619 126.394 373.26 127.035C373.767 127.62 374.197 128.266 374.543 128.958L388.012 166.137Z" fill="#D0CDE1"/>
<path d="M295.651 189.213L277.051 232.802C277.051 232.802 266.147 255.878 260.375 285.365L253.319 305.236L265.506 307.8L268.713 302.672L271.278 290.493C271.278 290.493 292.444 258.442 293.727 242.417L329.004 194.341L295.651 189.213Z" fill="#FFB8B8"/>
<path d="M344.397 193.7V241.135C344.397 241.135 340.549 269.98 341.832 283.442V309.082H351.453C351.453 309.082 351.453 298.185 353.377 294.339C355.301 290.493 366.205 250.75 362.998 236.648L373.26 189.213L344.397 193.7Z" fill="#FFB8B8"/>
<path d="M345.039 49.4734C354.603 49.4734 362.356 41.7247 362.356 32.1662C362.356 22.6077 354.603 14.8589 345.039 14.8589C335.474 14.8589 327.721 22.6077 327.721 32.1662C327.721 41.7247 335.474 49.4734 345.039 49.4734Z" fill="#FFB8B8"/>
<path d="M332.211 37.9352C332.211 37.9352 332.852 57.8065 330.928 60.3705C329.004 62.9346 354.66 66.7806 354.66 66.7806C354.66 66.7806 346.321 50.1144 352.094 44.3453L332.211 37.9352Z" fill="#FFB8B8"/>
<path opacity="0.1" d="M364.922 105.241C364.922 105.241 364.28 111.01 366.205 113.574C368.129 116.138 363.96 118.382 363.96 118.382C362.645 118.164 363.383 118.375 360.714 118.35L366.846 69.3447C366.846 69.3447 368.187 68.0499 370.374 70.9472C370.412 75.6971 367.487 87.9339 367.487 87.9339C371.977 99.4721 364.922 105.241 364.922 105.241Z" fill="black"/>
<path d="M352.735 55.8835C352.735 55.8835 332.211 50.7554 330.928 51.3965C329.645 52.0375 329.004 59.0886 329.004 59.0886C329.004 59.0886 307.838 57.1655 309.762 64.2166C311.686 71.2677 320.666 119.984 320.666 119.984C320.666 119.984 357.225 117.42 364.922 118.702C365.283 117.868 365.413 116.953 365.301 116.051C365.188 115.149 364.836 114.294 364.28 113.574C362.356 111.01 362.998 105.241 362.998 105.241C362.998 105.241 370.053 99.4721 365.563 87.9339C365.563 87.9339 373.901 71.9087 370.694 69.9857C367.487 68.0627 355.301 64.2166 355.301 64.2166C355.301 64.2166 355.301 55.2425 352.735 55.8835Z" fill="#D0CDE1"/>
<path d="M321.307 118.061L310.403 158.445C310.403 158.445 282.182 186.649 292.444 191.136C302.707 195.623 342.473 203.315 349.528 198.187C356.584 193.059 352.094 191.777 361.074 193.059C370.053 194.341 386.088 193.059 386.088 187.931C386.088 182.803 363.639 116.138 363.639 116.138L321.307 118.061Z" fill="#353636"/>
<path d="M263.582 301.39C263.582 301.39 255.244 297.544 253.32 300.108C251.395 302.672 232.795 334.081 243.057 336.004C253.32 337.927 263.582 332.799 264.865 327.03C266.147 321.261 273.844 311.005 273.844 311.005C273.844 311.005 282.157 301.349 270.945 292.075C270.945 292.075 268.713 301.39 263.582 301.39Z" fill="#2F2E41"/>
<path d="M337.983 307.8C337.983 307.8 346.321 299.467 352.735 307.8C352.735 307.8 362.356 337.927 347.604 337.286C332.852 336.645 334.776 330.876 334.776 330.876L337.983 307.8Z" fill="#2F2E41"/>
<path d="M291.162 161.65C291.162 161.65 279.617 187.931 287.955 188.572C296.293 189.213 298.217 164.214 298.217 164.214L291.162 161.65Z" fill="#FFB8B8"/>
<path d="M315.214 59.4091C315.214 59.4091 305.914 60.3706 305.272 65.4986C304.631 70.6267 300.141 109.728 300.141 109.728L288.596 163.573L300.783 166.137C300.783 166.137 309.121 132.163 313.61 127.035L317.459 91.78L315.214 59.4091Z" fill="#D0CDE1"/>
<path d="M347.922 4.61691C347.922 4.61691 331.299 3.58702 327.463 13.9179C323.627 24.2487 316.913 29.6724 316.913 29.6724C316.913 29.6724 306.339 37.0188 311.626 50.1332C311.626 50.1332 295.175 61.1814 306.044 70.9957C306.044 70.9957 305.405 80.81 311.799 87.5251C311.799 87.5251 316.913 90.1078 314.995 91.6574C313.077 93.207 327.782 92.174 326.504 78.2273C325.225 64.2807 333.856 54.4565 333.856 54.4565C333.856 54.4565 325.545 36.3742 329.381 30.1757C331.71 26.4123 332.71 23.6059 334.644 21.9816C335.72 21.0987 336.719 20.1247 337.628 19.0705C338.488 17.984 339.656 17.1822 340.979 16.7697C342.303 16.3573 343.719 16.3535 345.045 16.7589C350.799 18.3085 352.078 22.9574 352.078 22.9574C352.078 22.9574 356.234 34.063 363.266 39.2284C370.299 44.3938 357.832 53.4333 357.832 53.4333C357.832 53.4333 359.999 64.076 365.629 70.3769C371.258 76.6777 364.006 82.17 363.586 82.8762C362.627 84.4881 358.797 94.6665 374.618 94.7116C374.618 94.7116 378.291 87.0086 383.406 82.3597C388.521 77.7108 384.685 64.2807 384.685 64.2807C384.685 64.2807 392.357 59.6318 384.045 48.2679C384.045 48.2679 386.603 37.9371 379.57 31.222C379.57 31.222 369.66 1.00112 347.922 4.61691Z" fill="#2F2E41"/>
<path d="M329.061 31.3955C329.944 31.3955 330.659 30.2512 330.659 28.8396C330.659 27.4281 329.944 26.2838 329.061 26.2838C328.178 26.2838 327.463 27.4281 327.463 28.8396C327.463 30.2512 328.178 31.3955 329.061 31.3955Z" fill="#FFB8B8"/>
<path d="M239.33 0C242.092 0 244.33 2.23858 244.33 5V176.569C236.256 158.974 224.185 143.505 209.078 131.392C208.774 131.143 208.465 130.898 208.155 130.659C205.083 128.236 201.895 125.961 198.593 123.834C198.378 123.7 198.164 123.56 197.949 123.431C178.084 110.793 155.015 104.098 131.466 104.137H5C2.23858 104.137 0 101.899 0 99.1375V5C0 2.23858 2.23858 0 5 0H239.33Z" fill="#353636"/>
<path d="M234.803 31.5385H96.8696V35.7436H234.803V31.5385Z" fill="#F2F2F2"/>
<path d="M234.803 44.1539H96.8696V48.359H234.803V44.1539Z" fill="#F2F2F2"/>
<path d="M234.803 56.7692H96.8696V60.9744H234.803V56.7692Z" fill="#F2F2F2"/>
<path d="M183.462 129.718C186.223 129.718 188.462 131.957 188.462 134.718V231.306C183.816 221.183 176.871 212.283 168.18 205.314C168.005 205.17 167.827 205.03 167.649 204.892C165.881 203.498 164.047 202.189 162.147 200.966C162.024 200.888 161.9 200.808 161.777 200.733C150.347 193.462 137.074 189.61 123.526 189.633H52.8874C50.1259 189.633 47.8874 187.394 47.8874 184.633V134.718C47.8874 131.957 50.1259 129.718 52.8874 129.718H183.462Z" fill="#353636"/>
<path d="M182.157 147.18H102.134V150.333H182.157V147.18Z" fill="#F2F2F2"/>
<path d="M182.157 154.538H102.134V157.692H182.157V154.538Z" fill="#F2F2F2"/>
<path d="M182.157 161.897H102.134V165.051H182.157V161.897Z" fill="#F2F2F2"/>
<path d="M244.33 191.161C253.146 191.161 260.293 184.018 260.293 175.208C260.293 166.397 253.146 159.255 244.33 159.255C235.515 159.255 228.368 166.397 228.368 175.208C228.368 184.018 235.515 191.161 244.33 191.161Z" fill="#C65E57"/>
<path d="M188.462 244.004C194.798 244.004 199.935 238.871 199.935 232.538C199.935 226.206 194.798 221.072 188.462 221.072C182.125 221.072 176.989 226.206 176.989 232.538C176.989 238.871 182.125 244.004 188.462 244.004Z" fill="#C65E57"/>
<g clip-path="url(#clip1)">
<path d="M70.7097 162.144C70.9532 161.749 71.0171 161.349 70.9012 160.944C70.7854 160.539 70.5241 160.249 70.1172 160.074C69.7222 159.912 69.2989 159.906 68.8475 160.056C68.3961 160.206 68.0478 160.472 67.8028 160.855C67.5474 161.25 67.4716 161.647 67.5756 162.046C67.6795 162.445 67.929 162.738 68.324 162.925C68.719 163.112 69.1512 163.126 69.6204 162.969C70.0897 162.812 70.452 162.537 70.7074 162.144H70.7097ZM72.3469 160.041C72.439 159.889 72.459 159.736 72.407 159.58C72.3551 159.424 72.2533 159.317 72.1019 159.257C71.94 159.199 71.7744 159.202 71.6051 159.266C71.4358 159.33 71.3111 159.437 71.2309 159.589C71.0334 159.948 71.1091 160.209 71.4581 160.372C71.62 160.43 71.7885 160.427 71.9638 160.363C72.139 160.299 72.2667 160.192 72.3469 160.041V160.041ZM75.3741 161.901C74.8513 163.083 73.9351 163.953 72.6253 164.509C71.3156 165.065 70.0162 165.135 68.7272 164.718C67.4857 164.324 66.6304 163.591 66.1611 162.52C65.6919 161.448 65.7297 160.362 66.2747 159.259C66.8197 158.181 67.6988 157.375 68.9121 156.843C70.1253 156.31 71.3467 156.2 72.5763 156.513C73.8638 156.85 74.783 157.543 75.334 158.592C75.8849 159.641 75.8997 160.745 75.3785 161.903L75.3741 161.901ZM80.8047 159.119C80.7007 158.007 80.1847 157.021 79.2566 156.164C78.3285 155.306 77.1189 154.674 75.628 154.268C74.1371 153.861 72.5444 153.74 70.85 153.903C68.2631 154.17 66.1195 154.99 64.4192 156.362C62.7189 157.734 61.9504 159.267 62.1138 160.96C62.2177 162.072 62.7338 163.057 63.6619 163.915C64.59 164.772 65.7995 165.405 67.2905 165.811C68.7814 166.218 70.3741 166.339 72.0685 166.176C74.6553 165.909 76.7989 165.089 78.4992 163.717C80.1996 162.345 80.968 160.812 80.8047 159.119V159.119ZM86.1641 159.188C86.1641 159.976 85.9495 160.785 85.5203 161.614C85.0911 162.443 84.4585 163.237 83.6225 163.995C82.7864 164.753 81.8093 165.434 80.6911 166.038C79.5729 166.642 78.2616 167.123 76.7573 167.48C75.253 167.838 73.6841 168.017 72.0506 168.019C70.4171 168.02 68.8222 167.826 67.266 167.436C65.7097 167.045 64.3145 166.506 63.0805 165.818C61.8465 165.129 60.8515 164.254 60.0957 163.192C59.3398 162.129 58.9626 160.973 58.9641 159.722C58.9641 158.39 59.3673 156.97 60.1736 155.463C60.98 153.956 62.1256 152.46 63.6106 150.976C65.5708 149.018 67.5518 147.65 69.5536 146.873C71.5554 146.095 72.9854 146.136 73.8438 146.995C74.5981 147.737 74.714 148.948 74.1913 150.629C74.1452 150.791 74.1393 150.907 74.1734 150.976C74.2076 151.046 74.2655 151.087 74.3472 151.099C74.4289 151.111 74.5128 151.108 74.5989 151.09C74.685 151.072 74.763 151.052 74.8328 151.03L74.9375 150.994C76.5502 150.31 77.9773 149.968 79.2187 149.968C80.4602 149.968 81.3475 150.322 81.8806 151.03C82.4033 151.76 82.4033 152.792 81.8806 154.125C81.8568 154.277 81.8308 154.392 81.8026 154.473C81.7744 154.553 81.8004 154.625 81.8806 154.691C81.9608 154.756 82.0306 154.8 82.09 154.822C82.1494 154.844 82.2481 154.879 82.3862 154.927C83.047 155.136 83.6448 155.408 84.1794 155.743C84.714 156.079 85.178 156.551 85.5715 157.161C85.9651 157.771 86.1626 158.446 86.1641 159.186V159.188ZM84.8766 148.339C85.3636 148.884 85.6799 149.513 85.8255 150.226C85.971 150.94 85.9331 151.621 85.7119 152.269C85.6198 152.536 85.449 152.734 85.1995 152.861C84.9501 152.989 84.6917 153.012 84.4244 152.93C84.1571 152.838 83.9596 152.668 83.8319 152.419C83.7042 152.169 83.6811 151.911 83.7628 151.644C83.9945 150.914 83.8556 150.271 83.3463 149.715C82.8369 149.158 82.2162 148.956 81.4841 149.107C81.2064 149.165 80.945 149.119 80.7 148.969C80.455 148.819 80.3102 148.605 80.2656 148.326C80.2077 148.049 80.2538 147.79 80.4037 147.552C80.5537 147.313 80.7683 147.165 81.0475 147.109C81.744 146.957 82.4345 146.989 83.1191 147.204C83.8036 147.42 84.3895 147.799 84.8766 148.344V148.339ZM88.0262 145.506C89.036 146.619 89.6887 147.908 89.9842 149.374C90.2797 150.84 90.2018 152.24 89.7503 153.573C89.6464 153.887 89.4489 154.118 89.1578 154.268C88.8667 154.418 88.5653 154.441 88.2534 154.337C87.9416 154.233 87.7099 154.036 87.5585 153.745C87.407 153.454 87.378 153.153 87.4716 152.841C87.7968 151.89 87.8547 150.893 87.6453 149.85C87.436 148.807 86.9719 147.892 86.2532 147.104C85.5344 146.305 84.6761 145.751 83.6782 145.444C82.6802 145.137 81.6764 145.088 80.6666 145.297C80.3414 145.367 80.0399 145.312 79.7622 145.133C79.4845 144.953 79.3108 144.701 79.241 144.376C79.1712 144.051 79.2261 143.753 79.4058 143.481C79.5855 143.21 79.838 143.039 80.1632 142.969C81.5903 142.668 83.0055 142.735 84.4088 143.17C85.8121 143.604 87.0187 144.384 88.0285 145.509L88.0262 145.506Z" fill="#F2F2F2"/>
</g>
<path d="M523.696 150.55C523.85 151.045 524.265 151.403 524.778 151.484C524.85 151.496 524.922 151.501 524.994 151.501C525.429 151.501 525.838 151.293 526.096 150.929L527.271 149.271L529.306 149.297C529.824 149.303 530.295 149.021 530.53 148.559C530.766 148.097 530.72 147.552 530.409 147.136L529.192 145.508L529.845 143.585C530.012 143.094 529.888 142.561 529.52 142.194C529.153 141.828 528.619 141.703 528.127 141.87L526.2 142.522L524.569 141.307C524.153 140.997 523.606 140.951 523.144 141.186C522.681 141.421 522.397 141.89 522.404 142.408L522.43 144.439L520.768 145.612C520.344 145.911 520.131 146.416 520.212 146.928C520.294 147.44 520.652 147.853 521.148 148.007L523.092 148.61L523.696 150.55V150.55ZM523.78 146.002C524.002 145.845 524.183 145.636 524.307 145.394C524.431 145.152 524.494 144.883 524.49 144.611L524.48 143.803L525.128 144.286C525.347 144.449 525.601 144.556 525.87 144.599C526.14 144.641 526.415 144.618 526.673 144.531L527.439 144.271L527.179 145.036C527.092 145.294 527.068 145.569 527.111 145.837C527.154 146.106 527.261 146.36 527.424 146.578L527.908 147.225L527.099 147.215C526.547 147.209 526.025 147.473 525.705 147.924L525.238 148.583L524.998 147.812C524.917 147.552 524.774 147.316 524.581 147.124C524.389 146.931 524.152 146.789 523.892 146.708L523.119 146.468L523.78 146.002V146.002ZM541.595 148.897C541.033 148.873 540.481 148.756 539.952 148.548C538.171 147.847 536.953 146.229 536.773 144.325C536.765 144.232 536.759 144.139 536.755 144.046V143.911C536.755 143.877 536.753 143.844 536.75 143.811C536.73 143.263 536.278 142.824 535.724 142.823H535.722C535.155 142.823 534.694 143.282 534.694 143.849C534.694 143.925 534.695 144.001 534.698 144.077V161.852C534.687 161.922 534.684 161.993 534.688 162.063C534.731 162.794 534.614 163.513 534.343 164.2C533.848 165.453 532.894 166.438 531.657 166.975C530.419 167.512 529.047 167.535 527.791 167.041C525.2 166.022 523.923 163.088 524.945 160.502C525.865 158.172 528.395 156.859 530.828 157.449C531.381 157.583 531.937 157.245 532.071 156.694C532.205 156.143 531.866 155.587 531.314 155.453C529.661 155.053 527.913 155.261 526.393 156.041C524.858 156.828 523.664 158.145 523.03 159.749C521.593 163.389 523.39 167.517 527.037 168.952C527.881 169.284 528.764 169.45 529.645 169.45C530.607 169.45 531.568 169.253 532.477 168.858C534.218 168.103 535.561 166.716 536.257 164.953C536.561 164.183 536.726 163.384 536.751 162.57C536.754 162.539 536.755 162.508 536.755 162.476V148.854C537.445 149.549 538.275 150.096 539.197 150.459C539.94 150.751 540.718 150.916 541.51 150.949C541.524 150.949 541.539 150.949 541.553 150.949C542.102 150.949 542.558 150.517 542.581 149.965C542.604 149.399 542.163 148.92 541.595 148.897V148.897Z" fill="#F2F2F2"/>
<path d="M61.1554 35.0991C61.8776 35.0991 62.591 35.1521 63.3006 35.2312C61.3732 26.2678 51.7759 19.6093 40.8202 19.6093C28.5731 19.6092 18.5396 27.944 18.5396 38.5278C18.5396 44.637 21.8773 49.6537 27.4561 53.5446L25.2279 60.2366L33.0149 56.3367C35.8034 56.8879 38.0388 57.4535 40.8201 57.4535C41.5189 57.4535 42.2125 57.4194 42.9006 57.3654C42.4647 55.8781 42.2125 54.3206 42.2125 52.7048C42.2126 42.986 50.5708 35.0991 61.1553 35.0991H61.1554ZM49.1747 29.0679C50.8519 29.0679 51.9631 30.1695 51.9631 31.8438C51.9631 33.5111 50.8518 34.6278 49.1747 34.6278C47.5048 34.6278 45.8296 33.511 45.8296 31.8438C45.8296 30.1695 47.5049 29.068 49.1747 29.068V29.0679ZM33.5825 34.6278C31.9125 34.6278 30.2266 33.5111 30.2266 31.8439C30.2266 30.1696 31.9126 29.0681 33.5825 29.0681C35.2522 29.0681 36.3637 30.1696 36.3637 31.8439C36.3637 33.5111 35.2522 34.6278 33.5825 34.6278Z" fill="#F2F2F2"/>
<path d="M81.4886 52.4369C81.4886 43.5436 72.5758 36.2941 62.564 36.2941C51.9632 36.2941 43.6141 43.5436 43.6141 52.4369C43.6141 61.3462 51.9632 68.5795 62.564 68.5795C64.7832 68.5795 67.0223 68.0201 69.2505 67.4627L75.3606 70.8041L73.6854 65.2452C78.158 61.8956 81.4886 57.4535 81.4886 52.437V52.4369ZM56.4214 49.6537C55.3118 49.6537 54.1914 48.5523 54.1914 47.4283C54.1914 46.3195 55.3118 45.2036 56.4213 45.2036C58.1057 45.2036 59.2099 46.3196 59.2099 47.4283C59.2099 48.5523 58.1057 49.6537 56.4214 49.6537V49.6537ZM68.6758 49.6537C67.5734 49.6537 66.4621 48.5523 66.4621 47.4283C66.4621 46.3195 67.5734 45.2036 68.6759 45.2036C70.3457 45.2036 71.4642 46.3196 71.4642 47.4283C71.4642 48.5523 70.3457 49.6537 68.6759 49.6537H68.6758Z" fill="#F2F2F2"/>
</g>
<defs>
<clipPath id="clip0">
<rect width="557" height="369" fill="white"/>
</clipPath>
<clipPath id="clip1">
<rect x="58.9641" y="139.82" width="31.2154" height="31.1557" fill="white"/>
</clipPath>
</defs>
</svg>
