<svg width="557" height="368" viewBox="0 0 557 368" fill="none" xmlns="http://www.w3.org/2000/svg">
<path d="M416.924 233.535H415.927V331.745H416.924V233.535Z" fill="#3F3D56"/>
<path d="M421.426 130.715C418.664 130.715 416.426 132.953 416.426 135.715V232.303C421.071 222.18 428.016 213.28 436.708 206.311C436.883 206.167 437.061 206.027 437.239 205.889C439.007 204.495 440.841 203.186 442.74 201.962C442.864 201.885 442.987 201.805 443.111 201.73C454.54 194.459 467.813 190.607 481.362 190.63H552C554.761 190.63 557 188.391 557 185.63V135.715C557 132.953 554.761 130.715 552 130.715H421.426Z" fill="#353636"/>
<path d="M422.225 151.385H505.406V148.231H422.225V151.385Z" fill="#F2F2F2"/>
<path d="M422.225 158.744H505.406V155.59H422.225V158.744Z" fill="#F2F2F2"/>
<path d="M422.225 166.103H505.406V162.949H422.225V166.103Z" fill="#F2F2F2"/>
<path d="M416.426 245.002C422.762 245.002 427.899 239.868 427.899 233.535C427.899 227.203 422.762 222.069 416.426 222.069C410.089 222.069 404.953 227.203 404.953 233.535C404.953 239.868 410.089 245.002 416.426 245.002Z" fill="#FF1A2E"/>
<path d="M188.961 232.539H187.963V330.749H188.961V232.539Z" fill="#3F3D56"/>
<path d="M244.829 175.208H243.832V273.418H244.829V175.208Z" fill="#3F3D56"/>
<path d="M239.33 0C242.092 0 244.33 2.23858 244.33 5V176.569C236.256 158.974 224.185 143.505 209.078 131.392C208.774 131.143 208.465 130.898 208.155 130.659C205.083 128.236 201.895 125.961 198.593 123.834C198.378 123.7 198.164 123.56 197.949 123.431C178.084 110.793 155.015 104.098 131.466 104.137H5C2.23858 104.137 0 101.899 0 99.1375V5C0 2.23858 2.23858 0 5 0H239.33Z" fill="#353636"/>
<path d="M234.803 31.5386H96.8696V35.7437H234.803V31.5386Z" fill="#F2F2F2"/>
<path d="M234.803 44.1538H96.8696V48.3589H234.803V44.1538Z" fill="#F2F2F2"/>
<path d="M234.803 56.769H96.8696V60.9742H234.803V56.769Z" fill="#F2F2F2"/>
<path d="M183.462 129.718C186.223 129.718 188.462 131.956 188.462 134.718V231.306C183.816 221.183 176.871 212.283 168.18 205.314C168.005 205.17 167.827 205.03 167.649 204.892C165.881 203.498 164.047 202.189 162.147 200.965C162.023 200.888 161.9 200.808 161.777 200.733C150.347 193.462 137.074 189.61 123.526 189.633H52.8874C50.1259 189.633 47.8874 187.394 47.8874 184.633V134.718C47.8874 131.956 50.1259 129.718 52.8874 129.718H183.462Z" fill="#353636"/>
<path d="M182.157 147.18H102.134V150.334H182.157V147.18Z" fill="#F2F2F2"/>
<path d="M182.157 154.539H102.134V157.692H182.157V154.539Z" fill="#F2F2F2"/>
<path d="M182.157 161.897H102.134V165.051H182.157V161.897Z" fill="#F2F2F2"/>
<path d="M244.33 191.161C253.146 191.161 260.293 184.018 260.293 175.208C260.293 166.397 253.146 159.255 244.33 159.255C235.515 159.255 228.368 166.397 228.368 175.208C228.368 184.018 235.515 191.161 244.33 191.161Z" fill="#FF1A2E"/>
<path d="M188.462 244.005C194.798 244.005 199.935 238.871 199.935 232.538C199.935 226.206 194.798 221.072 188.462 221.072C182.125 221.072 176.989 226.206 176.989 232.538C176.989 238.871 182.125 244.005 188.462 244.005Z" fill="#FF1A2E"/>
<g clip-path="url(#clip0)">
<path d="M70.7097 162.143C70.9532 161.749 71.0171 161.349 70.9012 160.944C70.7854 160.539 70.5241 160.249 70.1172 160.074C69.7222 159.912 69.2989 159.906 68.8475 160.056C68.3961 160.206 68.0478 160.472 67.8028 160.855C67.5474 161.249 67.4716 161.646 67.5756 162.045C67.6795 162.444 67.929 162.737 68.324 162.924C68.719 163.111 69.1512 163.126 69.6204 162.969C70.0897 162.812 70.452 162.536 70.7074 162.143H70.7097ZM72.3469 160.04C72.439 159.889 72.459 159.735 72.407 159.58C72.3551 159.424 72.2533 159.316 72.1019 159.257C71.94 159.199 71.7744 159.202 71.6051 159.266C71.4358 159.33 71.3111 159.437 71.2309 159.588C71.0334 159.947 71.1091 160.209 71.4581 160.372C71.62 160.43 71.7885 160.427 71.9638 160.363C72.139 160.299 72.2667 160.191 72.3469 160.04ZM75.3741 161.901C74.8513 163.083 73.9351 163.952 72.6253 164.509C71.3156 165.065 70.0162 165.135 68.7272 164.718C67.4857 164.323 66.6304 163.59 66.1611 162.519C65.6919 161.448 65.7297 160.361 66.2747 159.259C66.8197 158.18 67.6988 157.375 68.9121 156.842C70.1253 156.31 71.3467 156.2 72.5763 156.513C73.8638 156.85 74.783 157.543 75.334 158.591C75.8849 159.64 75.8997 160.744 75.3785 161.903L75.3741 161.901ZM80.8047 159.119C80.7007 158.006 80.1847 157.021 79.2566 156.164C78.3285 155.306 77.1189 154.674 75.628 154.267C74.1371 153.861 72.5444 153.739 70.85 153.902C68.2631 154.17 66.1195 154.989 64.4192 156.362C62.7189 157.734 61.9504 159.266 62.1138 160.959C62.2177 162.072 62.7338 163.057 63.6619 163.915C64.59 164.772 65.7995 165.404 67.2905 165.811C68.7814 166.217 70.3741 166.339 72.0684 166.176C74.6553 165.909 76.7989 165.089 78.4992 163.717C80.1996 162.344 80.968 160.812 80.8047 159.119ZM86.1641 159.188C86.1641 159.976 85.9495 160.784 85.5203 161.614C85.0911 162.443 84.4585 163.237 83.6225 163.995C82.7864 164.753 81.8093 165.434 80.6911 166.038C79.5729 166.641 78.2616 167.122 76.7573 167.48C75.253 167.837 73.6841 168.017 72.0506 168.018C70.4171 168.02 68.8222 167.825 67.266 167.435C65.7097 167.045 64.3145 166.506 63.0805 165.817C61.8465 165.129 60.8515 164.254 60.0957 163.191C59.3398 162.129 58.9626 160.973 58.9641 159.722C58.9641 158.39 59.3673 156.97 60.1736 155.463C60.98 153.955 62.1256 152.46 63.6106 150.976C65.5708 149.018 67.5518 147.65 69.5536 146.872C71.5554 146.095 72.9854 146.136 73.8438 146.995C74.5981 147.737 74.714 148.948 74.1913 150.629C74.1452 150.791 74.1393 150.906 74.1734 150.976C74.2076 151.046 74.2655 151.087 74.3472 151.098C74.4289 151.11 74.5128 151.107 74.5989 151.09C74.685 151.072 74.763 151.052 74.8328 151.029L74.9375 150.994C76.5502 150.31 77.9773 149.968 79.2187 149.968C80.4602 149.968 81.3475 150.322 81.8806 151.029C82.4033 151.759 82.4033 152.791 81.8806 154.125C81.8568 154.276 81.8308 154.392 81.8026 154.472C81.7744 154.552 81.8004 154.625 81.8806 154.69C81.9608 154.756 82.0306 154.799 82.09 154.822C82.1494 154.844 82.2481 154.879 82.3862 154.926C83.047 155.135 83.6448 155.408 84.1794 155.743C84.714 156.078 85.178 156.551 85.5715 157.16C85.9651 157.77 86.1626 158.445 86.1641 159.186V159.188ZM84.8766 148.339C85.3636 148.883 85.6799 149.513 85.8255 150.226C85.971 150.94 85.9331 151.621 85.7119 152.269C85.6198 152.536 85.449 152.733 85.1995 152.861C84.9501 152.989 84.6917 153.012 84.4244 152.93C84.1571 152.838 83.9596 152.667 83.8319 152.418C83.7042 152.169 83.6811 151.911 83.7628 151.644C83.9945 150.914 83.8556 150.271 83.3463 149.714C82.8369 149.158 82.2162 148.955 81.4841 149.107C81.2064 149.165 80.945 149.119 80.7 148.969C80.455 148.819 80.3102 148.605 80.2656 148.326C80.2077 148.048 80.2538 147.79 80.4037 147.551C80.5537 147.312 80.7683 147.165 81.0475 147.108C81.744 146.957 82.4345 146.989 83.1191 147.204C83.8036 147.419 84.3895 147.799 84.8766 148.343V148.339ZM88.0262 145.506C89.036 146.619 89.6887 147.908 89.9842 149.374C90.2797 150.84 90.2018 152.239 89.7503 153.573C89.6464 153.886 89.4489 154.118 89.1578 154.267C88.8667 154.417 88.5653 154.44 88.2534 154.336C87.9416 154.233 87.7099 154.035 87.5585 153.744C87.407 153.454 87.378 153.153 87.4716 152.841C87.7968 151.89 87.8547 150.893 87.6453 149.85C87.436 148.807 86.9719 147.892 86.2532 147.104C85.5344 146.304 84.6761 145.751 83.6782 145.444C82.6802 145.137 81.6764 145.088 80.6666 145.297C80.3414 145.367 80.0399 145.312 79.7622 145.132C79.4845 144.953 79.3108 144.7 79.241 144.376C79.1712 144.051 79.2261 143.752 79.4058 143.481C79.5855 143.209 79.838 143.039 80.1632 142.969C81.5903 142.668 83.0055 142.735 84.4088 143.169C85.8121 143.604 87.0187 144.384 88.0285 145.508L88.0262 145.506Z" fill="#F2F2F2"/>
</g>
<path d="M523.696 150.55C523.85 151.045 524.265 151.403 524.778 151.484C524.85 151.496 524.922 151.501 524.994 151.501C525.429 151.501 525.838 151.293 526.096 150.929L527.271 149.271L529.306 149.297C529.824 149.303 530.295 149.021 530.53 148.559C530.766 148.097 530.72 147.552 530.409 147.136L529.192 145.508L529.845 143.584C530.012 143.093 529.888 142.561 529.52 142.194C529.153 141.827 528.619 141.703 528.127 141.87L526.2 142.522L524.569 141.307C524.153 140.997 523.606 140.951 523.144 141.186C522.681 141.421 522.397 141.89 522.404 142.408L522.43 144.439L520.768 145.612C520.344 145.911 520.131 146.415 520.212 146.927C520.294 147.44 520.652 147.853 521.148 148.007L523.092 148.61L523.696 150.55ZM523.78 146.002C524.002 145.845 524.183 145.636 524.307 145.394C524.431 145.151 524.494 144.883 524.49 144.611L524.48 143.803L525.128 144.286C525.347 144.449 525.601 144.556 525.87 144.599C526.14 144.641 526.415 144.618 526.673 144.53L527.439 144.271L527.179 145.036C527.092 145.293 527.068 145.568 527.111 145.837C527.154 146.106 527.261 146.36 527.424 146.578L527.908 147.225L527.099 147.215C526.547 147.209 526.025 147.473 525.705 147.924L525.238 148.583L524.998 147.812C524.917 147.552 524.774 147.316 524.581 147.123C524.389 146.931 524.152 146.789 523.892 146.708L523.119 146.468L523.78 146.002ZM541.595 148.897C541.033 148.873 540.48 148.756 539.952 148.548C538.171 147.847 536.953 146.229 536.773 144.325C536.765 144.232 536.759 144.139 536.755 144.046V143.911C536.755 143.877 536.753 143.844 536.75 143.811C536.73 143.262 536.278 142.824 535.724 142.823H535.722C535.155 142.823 534.694 143.282 534.694 143.849C534.694 143.925 534.695 144.001 534.698 144.077V161.852C534.687 161.922 534.684 161.993 534.688 162.063C534.731 162.794 534.614 163.513 534.343 164.2C533.848 165.453 532.894 166.438 531.657 166.975C530.419 167.511 529.047 167.535 527.791 167.041C525.2 166.022 523.923 163.088 524.945 160.502C525.865 158.172 528.395 156.859 530.828 157.449C531.381 157.583 531.937 157.245 532.071 156.694C532.205 156.142 531.866 155.587 531.314 155.453C529.661 155.053 527.913 155.261 526.393 156.041C524.858 156.828 523.664 158.145 523.03 159.749C521.593 163.388 523.39 167.517 527.037 168.952C527.881 169.284 528.764 169.45 529.645 169.45C530.607 169.45 531.568 169.252 532.477 168.858C534.218 168.103 535.561 166.716 536.257 164.953C536.561 164.183 536.726 163.384 536.751 162.57C536.754 162.539 536.755 162.508 536.755 162.476V148.854C537.445 149.549 538.275 150.096 539.197 150.459C539.94 150.751 540.718 150.916 541.51 150.948C541.524 150.949 541.539 150.949 541.553 150.949C542.102 150.949 542.558 150.517 542.581 149.965C542.604 149.398 542.163 148.92 541.595 148.897Z" fill="#F2F2F2"/>
<path d="M61.1554 35.0992C61.8776 35.0992 62.591 35.1522 63.3007 35.2314C61.3732 26.268 51.7759 19.6094 40.8202 19.6094C28.5731 19.6093 18.5396 27.9441 18.5396 38.5279C18.5396 44.6371 21.8774 49.6538 27.4561 53.5448L25.2279 60.2367L33.0149 56.3369C35.8034 56.8881 38.0388 57.4536 40.8201 57.4536C41.5189 57.4536 42.2125 57.4195 42.9006 57.3656C42.4647 55.8783 42.2125 54.3207 42.2125 52.7049C42.2127 42.9862 50.5708 35.0992 61.1553 35.0992H61.1554ZM49.1747 29.0681C50.8519 29.0681 51.9632 30.1696 51.9632 31.8439C51.9632 33.5112 50.8518 34.6279 49.1747 34.6279C47.5048 34.6279 45.8297 33.5111 45.8297 31.8439C45.8297 30.1697 47.5049 29.0681 49.1747 29.0681V29.0681ZM33.5825 34.628C31.9125 34.628 30.2266 33.5112 30.2266 31.844C30.2266 30.1697 31.9126 29.0682 33.5825 29.0682C35.2522 29.0682 36.3637 30.1697 36.3637 31.844C36.3637 33.5112 35.2522 34.628 33.5825 34.628Z" fill="#F2F2F2"/>
<path d="M81.4886 52.4367C81.4886 43.5435 72.5758 36.2939 62.564 36.2939C51.9632 36.2939 43.6141 43.5435 43.6141 52.4367C43.6141 61.3461 51.9632 68.5794 62.564 68.5794C64.7832 68.5794 67.0223 68.0199 69.2505 67.4625L75.3606 70.804L73.6854 65.2451C78.158 61.8954 81.4886 57.4533 81.4886 52.4368V52.4367ZM56.4214 49.6536C55.3118 49.6536 54.1914 48.5521 54.1914 47.4281C54.1914 46.3193 55.3118 45.2034 56.4213 45.2034C58.1057 45.2034 59.2099 46.3194 59.2099 47.4281C59.2099 48.5521 58.1057 49.6536 56.4214 49.6536ZM68.6758 49.6536C67.5734 49.6536 66.4621 48.5521 66.4621 47.4281C66.4621 46.3193 67.5734 45.2034 68.6759 45.2034C70.3457 45.2034 71.4642 46.3194 71.4642 47.4281C71.4642 48.5521 70.3457 49.6536 68.6759 49.6536H68.6758Z" fill="#F2F2F2"/>
<path d="M460.627 331.171H165.322C165.322 331.171 159.336 259.898 194.753 259.088C230.169 258.278 226.179 290.675 270.574 246.129C314.97 201.583 368.843 204.013 375.827 230.336C382.81 256.658 362.358 277.716 399.77 271.237C437.182 264.757 491.056 281.766 460.627 331.171Z" fill="#FF1A2E"/>
<path d="M307.99 331.187L306.993 331.155C309.317 284.229 321.423 254.079 331.169 237.05C341.751 218.559 351.949 211.074 352.05 211L352.713 211.605C352.613 211.678 342.535 219.089 332.037 237.455C322.345 254.412 310.306 284.439 307.99 331.187Z" fill="#F2F2F2"/>
<path d="M414.868 331.284L413.911 331.058C425.443 298.923 452.6 278.634 452.874 278.433L453.544 279.032C453.273 279.232 426.319 299.378 414.868 331.284Z" fill="#F2F2F2"/>
<path d="M211.834 331.227L210.845 331.116C214.002 313.313 210.526 294.972 201.072 279.557C193.906 267.78 185.73 261.348 185.648 261.285L186.338 260.7C186.421 260.765 194.724 267.295 201.967 279.198C211.508 294.753 215.018 313.262 211.834 331.227Z" fill="#F2F2F2"/>
<path d="M317.26 336.048C432.279 336.048 525.52 333.883 525.52 331.213C525.52 328.543 432.279 326.379 317.26 326.379C202.241 326.379 109 328.543 109 331.213C109 333.883 202.241 336.048 317.26 336.048Z" fill="#FF1A2E"/>
<path d="M314.368 80.8511L319.177 128.367H358.758L356.856 56.143C356.856 40.5973 346.099 27 330.538 27C314.978 27 304.855 39.9638 304.855 55.5094L302.319 128.367H308.772L314.368 80.8511Z" fill="#2F2E41"/>
<path d="M338.025 330.024C338.025 330.024 336.317 340.833 333.469 342.54C330.622 344.247 348.275 348.229 348.275 348.229L351.123 331.162L338.025 330.024Z" fill="#FBBEBE"/>
<path d="M359.095 206.569L365.359 213.965L362.512 239.566L360.234 290.2C360.234 290.2 364.79 334.006 360.234 335.144C355.678 336.282 335.178 335.713 335.747 332.868C336.317 330.024 336.886 327.748 338.025 323.766C339.164 319.783 336.886 305.56 336.886 305.56L339.733 289.631L329.483 220.792L359.095 206.569Z" fill="#2F2E41"/>
<path d="M338.594 340.833C338.594 340.833 332.33 339.696 331.761 340.833C331.191 341.971 320.372 353.918 318.663 353.918C316.955 353.918 304.427 365.297 317.524 365.866C330.622 366.435 352.262 356.194 352.262 356.194C352.262 356.194 349.077 341.717 349.246 342.413C349.414 343.109 338.594 343.678 338.594 340.833Z" fill="#2F2E41"/>
<path d="M331.761 314.663C331.761 314.663 347.706 332.3 348.275 334.006C348.845 335.713 357.387 334.006 357.387 334.006L360.803 322.628L357.956 318.646L342.011 305.561L331.761 314.663Z" fill="#FBBEBE"/>
<path d="M354.539 327.748L346.282 335.513C346.282 335.513 356.817 351.643 356.817 353.349C356.817 355.056 357.387 369.279 363.081 367.003C368.776 364.728 369.345 341.971 369.345 341.971C369.345 341.971 368.776 318.646 365.359 316.939C361.942 315.232 354.454 315.771 354.454 315.771C354.454 315.771 359.095 327.179 354.539 327.748Z" fill="#2F2E41"/>
<path d="M307.274 155.935C307.274 155.935 304.427 165.038 303.857 167.313C303.288 169.589 299.871 175.847 299.871 185.519C299.871 195.19 301.01 206.569 299.871 207.707C298.732 208.844 280.509 272.563 288.482 279.39C296.454 286.217 322.649 308.974 324.358 311.818C326.066 314.663 326.636 321.49 330.052 320.352C333.469 319.214 346.567 307.836 347.136 305.56C347.706 303.284 339.733 299.302 339.733 299.302C339.733 299.302 323.788 275.976 319.802 276.545C315.816 277.114 316.385 273.701 316.955 271.994C317.524 270.287 318.663 269.149 316.955 269.149C315.246 269.149 316.385 264.598 316.955 262.322C317.524 260.047 330.622 229.325 330.622 229.325L365.359 213.965C365.359 213.965 363.651 172.434 351.123 161.055L348.275 154.228C348.275 154.228 316.385 151.953 307.274 155.935Z" fill="#2F2E41"/>
<path d="M321.511 66.0469C321.511 66.0469 324.358 85.959 317.524 87.0968C310.691 88.2347 304.996 87.6657 304.996 88.2347C304.996 88.8036 322.08 106.44 322.08 106.44L338.025 105.302L352.262 89.9414C352.262 89.9414 339.164 87.6657 339.164 79.7009C339.164 71.736 338.594 66.0469 338.594 66.0469L321.511 66.0469Z" fill="#FFB8B8"/>
<path d="M330.337 74.2962C340.087 74.2962 347.991 66.4002 347.991 56.6598C347.991 46.9195 340.087 39.0234 330.337 39.0234C320.588 39.0234 312.684 46.9195 312.684 56.6598C312.684 66.4002 320.588 74.2962 330.337 74.2962Z" fill="#FFB8B8"/>
<path d="M320.035 85.6484C320.035 85.6484 292.468 88.2346 290.76 95.6305C289.051 103.026 302.149 149.109 303.857 153.091C305.566 157.074 304.996 159.918 304.996 159.918C307.573 157.993 310.532 156.641 313.676 155.954C316.819 155.268 320.073 155.261 323.219 155.936C334.039 158.211 349.414 157.074 349.414 157.074C349.414 157.074 354.539 136.024 355.678 133.748C356.817 131.472 361.373 118.956 361.373 115.543C361.373 112.129 368.206 97.9062 368.206 97.9062C368.206 97.9062 364.79 87.6657 352.262 88.2347C352.262 88.2347 346.797 85.7911 345.258 87.5818C343.72 89.3725 335.178 97.3373 324.358 93.9238C313.538 90.5103 320.035 85.6484 320.035 85.6484Z" fill="#E6E6E6"/>
<path d="M357.387 95.0615L368.206 97.9061C368.206 97.9061 376.179 126.921 376.748 127.49C377.318 128.059 377.887 131.472 377.887 131.472C377.887 131.472 377.887 132.041 379.026 133.748C380.165 135.455 381.874 134.317 380.735 136.592C379.596 138.868 377.887 137.73 379.026 140.006C380.165 142.282 379.596 148.54 379.596 148.54C379.596 148.54 376.748 137.73 366.498 140.575L359.664 109.853L357.387 95.0615Z" fill="#E6E6E6"/>
<path d="M360.963 100.507L360.924 100.637L342.167 159.671L329.855 156.939L316.541 153.987L335.337 93.1113L360.963 100.507Z" fill="#FF1A2E"/>
<path d="M301.776 95.0615L290.957 97.9061C290.957 97.9061 282.984 126.921 282.415 127.49C281.845 128.059 281.276 131.472 281.276 131.472C281.276 131.472 281.276 132.041 280.137 133.748C278.998 135.455 277.289 134.317 278.428 136.592C279.567 138.868 281.276 137.73 280.137 140.006C278.998 142.282 279.567 148.54 279.567 148.54C279.567 148.54 282.415 137.73 292.665 140.575L299.499 109.853L301.776 95.0615Z" fill="#E6E6E6"/>
<path d="M282.984 138.868L279.427 144.808C279.427 144.808 277.859 155.935 285.831 155.935C293.804 155.935 305.193 145.126 305.193 145.126C305.193 145.126 310.888 142.85 314.305 143.419C317.721 143.988 336.514 143.419 328.541 133.748C320.569 124.076 306.902 133.748 306.902 133.748L292.665 140.575L285.262 136.592L282.984 138.868Z" fill="#FFB8B8"/>
<path d="M287.825 131.188L293.519 140.29C293.519 140.29 280.422 141.997 279.283 144.842C278.144 147.686 284.408 130.05 284.408 130.05L287.825 131.188Z" fill="#E6E6E6"/>
<path d="M315.636 50.4411C327.104 44.2643 331.815 44.5258 346.075 50.4411L349.88 41.1799C349.878 39.4361 349.184 37.7642 347.949 36.5312C346.715 35.2981 345.042 34.6045 343.296 34.6025H317.78C316.035 34.6045 314.361 35.2981 313.127 36.5312C311.893 37.7642 311.199 39.4361 311.197 41.1799L315.636 50.4411Z" fill="#2F2E41"/>
<path opacity="0.2" d="M360.924 100.638L342.167 159.671L329.855 156.94L348.358 97.0146L360.924 100.638Z" fill="black"/>
<path d="M352.261 97.0127L333.469 157.887L359.095 163.575L377.887 104.408L352.261 97.0127Z" fill="#FF1A2E"/>
<path d="M376.179 138.868L379.736 144.808C379.736 144.808 381.304 155.935 373.332 155.935C365.359 155.935 353.97 145.126 353.97 145.126C353.97 145.126 348.275 142.85 344.858 143.419C341.442 143.988 322.649 143.419 330.622 133.748C338.594 124.076 352.261 133.748 352.261 133.748L366.498 140.575L373.901 136.592L376.179 138.868Z" fill="#FFB8B8"/>
<path d="M371.338 131.188L365.644 140.29C365.644 140.29 378.741 141.997 379.88 144.842C381.019 147.686 374.755 130.05 374.755 130.05L371.338 131.188Z" fill="#E6E6E6"/>
<defs>
<clipPath id="clip0">
<rect x="58.9641" y="139.82" width="31.2154" height="31.1557" fill="white"/>
</clipPath>
</defs>
</svg>
