<svg width="24" height="24" viewBox="0 0 24 24" fill="none" xmlns="http://www.w3.org/2000/svg">
<path d="M6.3891 8.37083V21.6428H1.96967V8.37083H6.3891ZM6.67024 4.27198C6.67938 4.9234 6.45367 5.46798 5.9931 5.90569C5.53252 6.3434 4.92738 6.56226 4.17767 6.56226H4.15024C3.41767 6.56226 2.82852 6.3434 2.38281 5.90569C1.9371 5.46798 1.71367 4.9234 1.71252 4.27198C1.71252 3.6114 1.94224 3.06455 2.40167 2.6314C2.8611 2.19826 3.46167 1.98169 4.20338 1.98169C4.9451 1.98169 5.53881 2.19826 5.98452 2.6314C6.43024 3.06455 6.65767 3.6114 6.66681 4.27198H6.67024ZM22.2857 14.0348V21.6411H17.88V14.5423C17.88 13.6051 17.6994 12.8708 17.3382 12.3394C16.9771 11.808 16.4125 11.5423 15.6445 11.5423C15.0822 11.5423 14.6114 11.6965 14.232 12.0051C13.8525 12.3137 13.5691 12.6954 13.3817 13.1503C13.2834 13.4177 13.2342 13.7794 13.2342 14.2354V21.6411H8.82852C8.84681 18.0788 8.85595 15.1903 8.85595 12.9754C8.85595 10.7605 8.85138 9.43883 8.84224 9.01026L8.82852 8.3674H13.2342V10.296H13.2068C13.3851 10.0103 13.568 9.75998 13.7554 9.54512C13.9428 9.33026 14.1948 9.09826 14.5114 8.84912C14.828 8.59997 15.2165 8.40569 15.6771 8.26626C16.1377 8.12683 16.6491 8.05769 17.2114 8.05883C18.7382 8.05883 19.9657 8.56569 20.8937 9.5794C21.8217 10.5931 22.2862 12.0777 22.2874 14.0331L22.2857 14.0348Z" fill="#C65E57"/>
</svg>
